/* XPM */
static char *_579301760480[] = {
/* columns rows colors chars-per-pixel */
"64 64 131 2 ",
"   c black",
".  c #1F0900",
"X  c #300B00",
"o  c #3E090A",
"O  c #2F1305",
"+  c #241B05",
"@  c #2A1E06",
"#  c #2B1F08",
"$  c #351105",
"%  c #321E03",
"&  c #3B1B0B",
"*  c #2C2209",
"=  c #34250B",
"-  c #39260D",
";  c #37280E",
":  c #3B290E",
">  c #24201E",
",  c #352711",
"<  c #362912",
"1  c #3C2B10",
"2  c #352C1A",
"3  c #4B0F0D",
"4  c #530F0D",
"5  c #45150A",
"6  c #421B0E",
"7  c #521B0E",
"8  c #44200D",
"9  c #422C0F",
"0  c #51340F",
"q  c #442E11",
"w  c #492E12",
"e  c #452A1C",
"r  c #502211",
"t  c #512C16",
"y  c #572F1A",
"u  c #463112",
"i  c #4B3414",
"p  c #4F3816",
"a  c #4C311A",
"s  c #513616",
"d  c #533917",
"f  c #583A17",
"g  c #52331C",
"h  c #563919",
"j  c #5C3C1A",
"k  c #622E1A",
"l  c #633710",
"z  c #623E1C",
"x  c #703A1F",
"c  c #413020",
"v  c #4E3B23",
"b  c #5C3B21",
"n  c #5F3B2E",
"m  c #693721",
"M  c #613F26",
"N  c #6C3B20",
"B  c #663F2D",
"V  c #743323",
"C  c #723D25",
"Z  c #5F411C",
"A  c #65411E",
"S  c #6A431F",
"D  c #57452A",
"F  c #5B4A2D",
"G  c #4D4535",
"H  c #564D39",
"J  c #664224",
"K  c #6C4422",
"L  c #6D4528",
"P  c #714522",
"I  c #784727",
"U  c #754A23",
"Y  c #7B4C25",
"T  c #744B2B",
"R  c #7C4D29",
"E  c #7D512E",
"W  c #6B4D38",
"Q  c #7B4F30",
"!  c #645030",
"~  c #4A4C4F",
"^  c #595344",
"/  c #6E5C4A",
"(  c #7E6942",
")  c #786651",
"_  c #70685D",
"`  c #9C2423",
"'  c #813F27",
"]  c #843D28",
"[  c #9B3430",
"{  c #804E27",
"}  c #814F29",
"|  c #815127",
" . c #83512A",
".. c #8B552C",
"X. c #8E5A2E",
"o. c #935C2F",
"O. c #815432",
"+. c #8A5631",
"@. c #8B5932",
"#. c #895B39",
"$. c #955D32",
"%. c #9A5E34",
"&. c #9B6233",
"*. c #93623D",
"=. c #9E683D",
"-. c #A06237",
";. c #A76F34",
":. c #A46539",
">. c #B65A44",
",. c #857D64",
"<. c #9C895E",
"1. c #9A8B6B",
"2. c #958B75",
"3. c #93877A",
"4. c #A4967C",
"5. c #8C8B84",
"6. c #9A9993",
"7. c #AE9883",
"8. c #B7A696",
"9. c #B0A897",
"0. c #A9A6A1",
"q. c #B1ADA3",
"w. c gray69",
"e. c #CBCBBF",
"r. c #D5D0BD",
"t. c #C0C4C7",
"y. c #D5D2C5",
"u. c #D8D2CB",
"i. c #DDDACC",
"p. c #D8D8D2",
"a. c #F0ECE1",
/* pixels */
"                                                                                                                                ",
"                                                                                                                                ",
"                                                                                                                                ",
"                                                                                                                                ",
"                                                                                                                                ",
"                                                                                                                                ",
"                                                                b b K T L M                                                     ",
"                                                              a T +.$.%.+.T v                                                   ",
"                                                              T E +.&.&.@.E O.                                                  ",
"                                                            T =.@.K I P T :.:.b                                                 ",
"                                                            R Q #.O.z C #.*.%.M                                                 ",
"                                                            L & 8 t L y 8 O c b                                                 ",
"                                                              & >.X & $ 7 V F t                                                 ",
"                                                              Q ] V #.P V ' T                                                   ",
"                                                            | g L L ;.&.K T u                 6.                                ",
"                                                          @.Y , I n 8.7.B I v X. .          q.                                  ",
"                                          0.>         X.X...P 1 g 4 . o 4 , A ..@.%.$.    p.4.                                  ",
"                                            9.y.5. .X.%.%.} i - * 3 [ ` 3 < f N X.%.%.X./ <.                                    ",
"                                              F ,.N %.%.X.f w : * c W W e = i f } $.:.%.x 6                                     ",
"                                                5 Y X.%.$.R s w * m k k C , w K | -.%.X.| U                                     ",
"                                                r K R $.o.} S w , + r & * q j R X.$.$.{ P K                                     ",
"                                      p.~       f i K Y Y U S S - # @ @ * i z  .R X.| N h j ; 6.i.u.                            ",
"                                        a.r.3.1 w ; q j S e.0 U j @ + + = u S } e.R P s s i 9 D !                               ",
"                                          v c w - * * f z B i Y z w + @ ; f { ..2.z p w q w q w                                 ",
"                                          p Z Z p @ * 9 i w s Y S - # = 9 Z { ..z u w ; * w i w =                               ",
"                                        p p S S s @ + * u q w K f = * = = f P Y s u * * @ q s s u *                             ",
"                                        p d z d : + - = # ; 9 u 9 @ * * = 9 u ; # * q   # ; q h : *                             ",
"                                        p 9 * @ @ *     ; = @ + * = * * = : * + * *     + ; 1 1 = *                             ",
"                                      i.d = @ + =       : i i : 0 f : u f i : u i *       # * = @ *                             ",
"                                      p f f = @           w ; # i d : = u d : ; w :       2 * @ + =                             ",
"                                      p S A 9 *           9 + @ @ * : = * + * + , :         # # * u w                           ",
"                                      j P j : *           : @ * p f q i Z d = + =           + + ; s i                           ",
"                                      S Y d : *           u * * u d = : 9 i * * q           + # , j z                           ",
"                                      U R p ;             p 9 * = ; : : : = : : u ;         # = w A S                           ",
"                                      U Y i =           d p u p d z d A P z i w i 1         * q u P                             ",
"                                      Y P u *           ; i 1 q j P i i A f 9 : q u         : q d A                             ",
"                                      U P u             i f i 9 i d : q i u : - i u         - d z p                             ",
"                                      S S * *           u A d u 1 u i i u : : u f i w     P  .R S p                             ",
"                                      S j f *           p S A p 1 = w q ; = w i j p u     w J z S                               ",
"                                      p A K ;         : i S U Z q * = = # = w d K j w : : q w f p                               ",
"                                      p K f i         u u U ..P i * + + @ q p z P j u :   * = j                                 ",
"                                      p = * +         = u | o.Y p * + + * u j S P j w ;     s +                                 ",
"                                        + +           * u E o.Y i * ;   * : f J P d : ;                                         ",
"                                                      * u U ..Y u * w   * ; i A S u = :                                         ",
"                                                      = u J Y K w : i   * * u A A u = ;                                         ",
"                                                      : d f A f q 1 d   ; * : p d q *                                           ",
"                                                        d j f 1 : i p   1 : = q w * *                                           ",
"                                                        1 f w * 1 p       : * * ; * *                                           ",
"                                                        : w @ + * :       : * 1 9 * *                                           ",
"                                                          * @ * q =       * * i 9 ; *                                           ",
"                                                          = ; f f * :     * * _ ( *                                             ",
"                                                          : - / 1 * ;     * * 2 1.=                                             ",
"                                                          1 1 y.a ; q     1 * + H q                                             ",
"                                                            = ^ * , w       * + G                                               ",
"                                                            1 * * ; d     * * : = u                                             ",
"                                                            p * * : d     * : u : *                                             ",
"                                                            p = ; 1 d     ; w w u *                                             ",
"                                                              q i z Z     : u i i *                                             ",
"                                                              p K P p     q 1 i u =                                             ",
"                                                              z P P d     u t.: w.*                                             ",
"                                                            A U P j d                                                           ",
"                                                          S U f   j P p                                                         ",
"                                                          l % :   i ) p                                                         ",
"                                                                                                                                "
};
