/* XPM */
static char *_579200115391[] = {
/* columns rows colors chars-per-pixel */
"64 64 170 2 ",
"   c #08070D",
".  c #09080D",
"X  c #09080E",
"o  c #0A090E",
"O  c #0A090F",
"+  c #0B0A0F",
"@  c #0B0A10",
"#  c #0C0B10",
"$  c #0C0B11",
"%  c #0D0C11",
"&  c #0D0C12",
"*  c #0E0D12",
"=  c #0E0D13",
"-  c #0F0E13",
";  c #0F0E14",
":  c #100D14",
">  c #100F14",
",  c #110E15",
"<  c #100F15",
"1  c #120F16",
"2  c #111015",
"3  c #131315",
"4  c #111016",
"5  c #121116",
"6  c #121117",
"7  c #131217",
"8  c #111018",
"9  c #131218",
"0  c #141118",
"q  c #141318",
"w  c #141319",
"e  c #14131B",
"r  c #151419",
"t  c #161618",
"y  c #15141A",
"u  c #16151A",
"i  c #17141B",
"p  c #16151B",
"a  c #17161B",
"s  c #15141C",
"d  c #17161C",
"f  c #17161E",
"g  c #18171C",
"h  c #18171D",
"j  c #18171F",
"k  c #1A171E",
"l  c #18181A",
"z  c #19181D",
"x  c #1B1B1D",
"c  c #19181E",
"v  c #1A191E",
"b  c #1B181F",
"n  c #1A191F",
"m  c #1B1A1F",
"M  c #1C1A1F",
"N  c #1A1921",
"B  c #1B1A20",
"V  c #1B1A22",
"C  c #1C1920",
"Z  c #1C1B20",
"A  c #1C1B21",
"S  c #1C1B23",
"D  c #1E1B22",
"F  c #1D1C21",
"G  c #1E1C21",
"H  c #1F1F21",
"J  c #1D1C22",
"K  c #1E1D22",
"L  c #1F1D22",
"P  c #1F1C23",
"I  c #1E1D23",
"U  c #1F1E23",
"Y  c #1D1C24",
"T  c #1E1D25",
"R  c #1F1E24",
"E  c #1F1E26",
"W  c #201D24",
"Q  c #201F24",
"!  c #211E25",
"~  c #201F25",
"^  c #211E27",
"/  c #201F27",
"(  c #221F26",
")  c #212025",
"_  c #222224",
"`  c #212026",
"'  c #222126",
"]  c #232126",
"[  c #232027",
"{  c #222127",
"}  c #212227",
"|  c #232227",
" . c #242227",
".. c #242426",
"X. c #212028",
"o. c #222129",
"O. c #232228",
"+. c #23222A",
"@. c #242128",
"#. c #242328",
"$. c #252229",
"%. c #242329",
"&. c #24232B",
"*. c #26232A",
"=. c #252429",
"-. c #25242A",
";. c #26252A",
":. c #27242B",
">. c #26252B",
",. c #27262B",
"<. c #25242C",
"1. c #26252D",
"2. c #27262C",
"3. c #27262E",
"4. c #28262B",
"5. c #28252C",
"6. c #28272C",
"7. c #29262D",
"8. c #28272D",
"9. c #28272F",
"0. c #2A272E",
"q. c #28282A",
"w. c #29282D",
"e. c #29282E",
"r. c #2A292E",
"t. c #2B292E",
"y. c #2B282F",
"u. c #2A292F",
"i. c #292A2F",
"p. c #2B2A2F",
"a. c #292732",
"s. c #292830",
"d. c #2A2931",
"f. c #2B2A30",
"g. c #2B2A32",
"h. c #2C2930",
"j. c #2C2B30",
"k. c #2D2A31",
"l. c #2C2B31",
"z. c #2C2932",
"x. c #2C2B33",
"c. c #2E2B32",
"v. c #2D2C31",
"b. c #2D2C32",
"n. c #2E2D32",
"m. c #2F2C33",
"M. c #2E2D33",
"N. c #2F2E33",
"B. c #2D2C34",
"V. c #2E2D35",
"C. c #2F2E34",
"Z. c #2F2E36",
"A. c #302F34",
"S. c #302F35",
"D. c #302F37",
"F. c #313035",
"G. c #313036",
"H. c #323136",
"J. c #333037",
"K. c #323137",
"L. c #333237",
"P. c #313038",
"I. c #333238",
"U. c #343339",
"Y. c #34333B",
"T. c #35343A",
"R. c #37363C",
"E. c #37363E",
"W. c #3A3941",
"Q. c #3E3D43",
/* pixels */
"e.R R J %.>.` >.A J J J e.>.f.` >.>.J >.` >.>.J J J ` 2.8.e.W B c >.%.%.>.c J ) J 8.%.f.W >.>.R &.` >.` B R J >.>.2.e.` >.` O.>.",
"f.8.c c 2.%.O.2.>.B = ..e.q.f.e.J p ` >.>.>.e.J d p e.>.e.8.>.c c >.>.O.4.>.c = %.8.8.8.e.W 9 ~ 8.>.>.e.J p p f.>.e.e.2.d c >.&.",
"C.%.f.2.A >.8.2.A F.e.M e.>.2.e.>.e.J &.>.e.~ >.T.J >.e.8.8.8.e.e.A >.>.q.M F.e.J q.%.2.f.>.e.J &.e.8.~ &.I.R O.2.2.e.2.e.2.J >.",
">.>.>.e.>.c J B Q  .e.` ` f.e.>.>.e.e.Z ` J h ` e.e.J >.8.e.8.>.e.>.g R c ) ..p.` O.f.f.>.>.e.f.M c ~ c O.2.f.J 2.e.e.>.>.e.>.p ",
"` e.%.2.>.p = >.4.` ..e.A 6 A e.>.&.e.Z + 7 p.` &.q.e.r r ` q. .2...c = >.8.` ` f.J r J 8...%.4.J 2 c n.` ` 2.2.q p ` q.` e.>.c ",
"p 8.e.e.O.>.>.8.) e.e.e.>.>.J ` e.>.e.` 4.>.q.>.e.>.e.>.>.c e.4.e.&.>.>.e.` e.2.e.>.>.J  .e.>.8.` q.>.>.O.f.2.2.>.>.A q.q.e.>.` ",
"O.d p c 2.O.%.O.c M M ) >.>.e.J J B O.>.>. .Q l ` J q.O.q.>.l a B >.>.` >.c W J O.2.4.p.J J c  .>.` >.` c R B 2.>.4.>.M c J >.>.",
"C.` = p 8.>.>.%.c 6 = ` 2.>.2.l.9 @ W e...>...q 6 6 e.>.>.e.` = 6 e.>.>.>.c 6 6 ` >.>.4.n.7 # W q.>.>.` 9 6 p f...>.p.` + 7 >.>.",
"2.J e.` c 2.>.>.M J R c 8.y.8.8.R 2.d ` >.e.J M P B R f.e.f.R >.J c e.>.%.A A R B 8.l.8.:.^ :.g ` >.q.J ) c J J p.e.e.J >.J c e.",
">.2.e.e.J R n.J q.>.e.O.A I.8.W 2.f.>.p p.` ` e.O.f.N f.I.` O.e.f.B R n.A 8.%.f.` A J.y.W 8.h.%.l e. .` e.>.e.c e.F.` >.e.e.A J ",
"e.>.O.e.e.6 ; >.e.>.>.n.W 1 W A.>.>.n.J + c p.>.O.2.f.e d 2.f.>.e.e.; ; 2.l.%.4.l.W 1 W l.*.2.m.J + c n.>...4.e.p p e.e.%.e.e.6 ",
"J 2.O.f.` >.J J f.O.>.e.W W k 7.2.>.e.` >.M q.e.&.l.2.R d O.f.>.2.` 2.J W 8.%.8.n.W W k 8.8.:.8.` 4.M q.e.` e.>.J a ` l.>.e.` >.",
"W %.l.*.J e.e.` J q.p.` ( 8.%.W n.e.` O.e.>.c O.n.8.R 2.2.R >.n.f.R 2.2.R R a.l.O.O.2.%.A l.h.W  .e.>.J >.f.e.R 2.2.J >.n.8.W e.",
"e.W i A e.` >.>.Q q q ` *.:.n.W J c %.>.` ..>.c 9 d >.&.f.e.R J J 2.O.>.>.` r r O.%.2.l.( W A W >.` &.>.c 6 g >.>.e.e.` A J >.>.",
"A.:.( W %.>. .p.` e.p 4.%.2.2.l.` c ` e. .>.>...` h f.>.2.e.e.B J >.>.O.e.O.8.g 2.2.8.2.l.W B W 2.` ..8...` c e.>.2.2.e.J J O.2.",
"k.*.y.8.J 2.e.` M n.n.A 8.2.f.2.>.n.J ` e.q.c >.S.~ O.8.2.2.>.e.e.J 2.f.` B l.l.A 8.2.f.:.:.l.W O.e.2.c e.F.` ` e.>.e.2.e.2.J 2.",
"*.*.2.l.%.r a c .. .e.>.` >.8.>.>.2.f.c p g J >.>.e.J >.>.>.>.>.p.>.q l c O.O.f.O.` 2.2.>.>.4.p.c q c J O.<.f.R O.2.2.2.O.f.O.9 ",
"` f.%.8.%.a 7 l.e.>.>.e.c 6 B f.>.>.2.B p A F.` >.>.e.p p >.8.>.q.` l 2 n.2.O.O.f.B 9 B e. .>.e.c p J F.O.&.<.2.9 d O.2.O.f.` d ",
"d 8.8.f.>...4.8.R e.8.q.e.n.J ` l.2.e.O.q.e.`  .p.q.e.e.>.c n.e.p.>.>.e.2.R f.2.e.e.C.R ` p.q.e.` q.e.` 2.f.2.2.f.2.B C.e.e.>.>.",
"l.c g g >.>.>.>.l J J >.l.2.n.J B c O.e.>.>.J c ` J e.e.n.>.c c c q.>.>.O.c R Z &.f.2.C.J M c ` e.>.>.J h ~ R f.9.g.8.B c x >.>.",
"Q.2.6 p 4.4...>.c q 2 ` f.8.f.l.p # W e...>...p 6 p e.e.e.n.O.@ r 8.2.>.O.B 8 ; O.g.a.f.f.p + J q.>.>.` 9 r 9 l.9.f.n.` + q q...",
"F.` n.%.a 4.>.` M ) J M 8.%.2.8.%.e.c ` >.>.J Q ~ Z ` e.>.>.&.2.` B 2.>.O.R R R B 9.9.9.2.O.e.c  .>.>.Q R W B O.f.2.e.>.e.` c e.",
"e.>.e.C.J M 4.M  .>.8.A 2.D.l.8.2.l.4.c ..` M >.>.>.c C.n.e.2.e.l.R A 8.B 2.2.2.B 2.C.f.4.q.e.4.c >.` J >.>.2.B C.D.e.4.e.p.J M ",
"R O.` >.q.2 + >. .` %.8.g g O.8.>.%.e.J + c q.` ` 2.` d B >.2.>.>.>.6 # O.O.O.O.2.d N O.e.>...e.M + a e.` &.2.~ d R >.q.>.4.>.2 ",
"c f.O.e.O.>.` n.>.` ` L.W R g 2.2.>.2.` O.` n.` O.2.C.B B B e.O.8.` >.R n.>.%.` F.` J g 2.>.>.q.` O.O.C.O.O.2.C.B B J f.O.e.O.O.",
"B R 2.O.` &.>.O.c e.>...:.8.%.P e.2.>.>.>.2.J ` f.>.>.e.f.J O.8.%.%.>.2.O.c f.2.>.>.n.%.J e.4...>.O.2.B R f.2.O.e.f.B >.2.2.>.>.",
"e.B @ d q.O.&.&.M q 6 ` 8.%.8.W 6 = ` e.>.` ` p p d 2.` >.2.d = p 8.%.%.>.M 6 6 ` q.O.>.) 6 2 ` >.>.O.>.9 9 9 f.O.>.>.c = p >.O.",
"n.` B c ` >.>.2.M p q J 8.8.8.A.g p J 2.O.>.` p 9 d >.2.>.f.>.p p O.%.>.>.c p 6 J >.e.e.p.c q J 8...2.R d d d 2.2.2.f.O.9 p O.>.",
"W O.B.<.e e.n.R ) ) >.B >.l.h.( ` n.c R l.2.J O.J >.B n.l.>.J e.%.p 2.n.) ) `  .M >.n.e.` ` l.c J n.2.A >.R O.B C.f.&.R e.O.p e.",
"8.8.<.g.O.d ` ` e...e.2.k 8.:.( 2.2.f.c J ~ >.2.O.f.R R f.` >.>.e.` d ` Q q.` e.e.c e.2.` >.>.e.d J ` >.2.O.f.R R f.E 2.2.f.R p ",
">.>.>.2.2.d $ >.e...>.C.( : A A.>.>.e.W = p n.>.>.2.l.p < e.f.>.2.e.d = >.e.>.%.n.O.6 A n.2.>.8.Q = d n.2.O.2.C.d ; 9.f.2.2.f.d ",
"c e.8.f.R l.2.J >.>.p.e.W *.C *.2.8.2.O.n.R ` q.O.n.` &.R J e.>.e.` f.2.J >.>.e.2.J O.c >.e.8.>.` C.R R e.O.n.R O.` S f.2.2.R f.",
">.J e.` ` >.>...M >.>.J &.&.e.R e.e.` ` >.q.M ) 2.` ` 2.2.O.` f.` ` >... .c >.8.J >.>.e.J e.e.` O.>.2.A J q.` ` >.e.` ` n.>.) ..",
"e.>.6 J 4...) q...q = >.>.>.f.2.B p ..>. .>.q.c ; d f.2.e.e.O.p c e. .>.>. .6 = q.>.4.e.e.c 9 ..>.O.%.8.c = c e.>.e.e.` p c 4.>.",
"n.>.e.` J q.>.4.Q L.` ` q.O.>.l.>.%.J >.>.4.` e.C.B f.O.2.e.2.>.) ) >...q.) F.` ` e.>.>.e.>.>.J >.O.8.` q.n.c e.>.>.e.e...) ` >.",
"f.>.e.e.`  .8.l J q.n.J 2.f.f.2.>.f.>.J >.` c ..f.2.` f.f.2.>.2.e.) ) q.c J >.F.J 2.e.f.>.>.e.>.R 4.) c >.e.e.W n.e.e...4.p.` ` ",
"2.9.2.2...> = ) ....>.4.Z B O.8.>.2.e.c + p >.` O.>.` p J 2.2.O.e.` > : ` ..%.>.2.B B O.8.>.>.e.c + p ..>...2.` N R 8.>.>.e.%.> ",
"B C.O.f.` ` ) n.>.>.>.e.` Z B 8.8.>.e.J ` %.F. .>.>.e.J B R f.>.e.` ` J A.>.>.` C.R B B 8.8.>.e.J ` >.F. .>.8.e.B B W e. .q.` J ",
"B O.2.>.` >.e. .c e.>...e.n.>.J e.>.>.>.>.q.M ` e.>.>.n.f.R >.2.e.>.>.8...c e.e.O.2.f.:.J e.2.2...4.>.c ` p.>.>.f.g.J >.q.4.>.>.",
"W.E @ p e.>.>.>.c l q >.n.>.l.&.9 = O.e.>...` p l p n.>.f.C.c = 7 e.4.4.>.l q p O.f.2.C.O.r = ` e.>... .6 c a n.9.g.n.c = q e...",
"W.&.R N ~ &...>.c p p Q e.e.8.l.B r J 2.` >.` l p p e.e.e.e.2.d p %.>.>...M q p Q e.e.2.e.J p A 2.O.O.O.p p p e.a.e.f.2.9 d O.>.",
"D.&.C.f.p >.p.J ) ` >.M e.e.2.>.>.C.J J e.>.A ..>.R J n.>.e.O.n.2.c >.e.) H ..>.M e.f.a.>.8.n.J J f.2.B ` >.` ` f.2.2.O.f.e.d >.",
"/ O.:.f...6 J M >.&.>.` ` n.n.2.8.8.l.c p J W >.O.2.J f.n.e.2.2.e.` 7 M J ` ..>.R E C.g.>.>.q.e.c p B R 2.2.>.c f.n.f.2.2.f.` 6 ",
"R 2.O.O.>.l = e.>.` ` n.c 6 c e.%.%.>.W 2 c n.) ` 2.2.; 9 >.>.O.4...c = e.>.` ` C.B 8 B e.>.>.>.) 6 B f.O.E >.e.6 9 O.2.>.>.2.c ",
"e n.e.f.` e.>.e.` q.4.n.>.e.c >.e.>.e.` e.O.>.O.2.2.f.O.O.c f.>.e.` 4.>.e.` >.>.C.2.e.B >.e.>.e.` e.4.2.` >.e.n.>.>.B f.O.e.` 2.",
"R d J B >. .>.` l ` ` ` 2.2.e.c ` ` O.>.>.>.J B O.R O.2.e.O.B O.` >.>... .l ..` R 2.2.e.J R ` O...` >.J J ` J >.>.e.` B ` R >.>.",
"n.` X e 9.2.>.2.M 6 = ` 2.>.2.e.6 + O.2.>.>.>.6 ; 9 e.2.>.2.R @ p e.>.>.>.J 6 = O.>.O.2.2.6 + ` >.>.>.` q 6 p f.O.>.e.R   p 2.>.",
"e.J 2.J S 2.>.>.J c c J e.e.e.f.J J p >.` e.` c c B O.f.2.f.R ` c J >.>.>.M l c B 2.e.e.e.J ) l ....>.) c c c O.e.2.n.` J B J >.",
"` >.f.9.c >.F.Z >. .h.^ ( Y.a.A 2.f.R B C.O.R f.R 2.d C.I.R R 2.e.p >.n.B >.O.e.R R I.f.R &.f.R c n.>.J q.` f.c C.I.R O.f.2.d O.",
"f.2.2.9.e.: p >.p.%.( h.P N ( p.2.2.f.B ; S f.2.2.f.2.d R 2.e.>.f.2.; p O.e.>.2.f.B S O.e.2.>.n.M > J p.>.>.e.2.N R >.e.O.f.2.; ",
"R 2.&.2.>.J g ..p.( :.A.` g c n.9.&.2.O.R c f.2.O.f.f.B 9 O.f.>.2.>.` c O.f.O.>.C.E d c n.2.&.e.` M l e.8.%.e.e.B 9 &.f.2.2.>.O.",
"R &.g.f.J n.e.J Q 8.A.*.` e.W W g.f.>.O.f.O.B 2.f.f.R O.>.B 2.f.e.R f.e.R R e.n.2.R e.R ~ n.f.O.` n.>.J >.f.n.R O.:.J 2.f.2.R f.",
"9.R S S &.O.>.>.A M A W 2.>.n.` O.E O.&.` >.` c B B O.O.f.f.R O.R O.O.>.>.J B J R 2.O.C./ O.R R 4...2.R B B c >.O.f.2.J O.R O.` ",
"n.2.B R 2.>.` e. .W : 8.>.e.8.f.R d O.2.>.>.e.J d d n.O.2.2.2.d B 2.>.O.e.O.J 6 2.2.2.2.f.R d O.2.>.%.8.J d c n.2.e.e.2.d B 2.O.",
"C.O.f.O.R 2.e.>.M F.f.J e.%.8.e.>.f.J ..>.e.J >.I.R 2.2.2.2.2.f.>.W 2.>...M F.e.J e.O.2.>.>.n.J %.>.8.A >.F.` >.2.2.2.2.f.2.R 2.",
"2.2.2.C.O.d R c ` %.l.O.%.f.e.>.>.2.f.J M M M ..2.f.R 2.f.2.2.&.p...c J c ` ` n.O.O.2.e.>.>.e.e.A A B A ` e.e.J f.e.2.>.>.f.O.d ",
"&.e.>.e.` 6 = e.2.%.>.e.B r J 8.2.O.f.B @ c p...&.2.2.9 d O.2.O.e.` 7 > q.>.>...e.J d B 2.2.>.e.B : c n.` >.2.2.9 9 >.2.O.2.O.6 ",
"p e.>.e.` >.>.e.%.8.>.e.>.e.J O.2.2.2.O.2.>.e.` >.2.9.2.O.B f.2.e...>.>.e.` >.>.>.>.2.O.` >. .>.>.2.2.2.` e.>.2.2.2.B f.2.f.O.O.",
">.c h c >.>.>.` g W J  .f.2.e.` R 9 R 2.>.>.J c ` J 2.2.g.2.R B J q.>. .>.c l r J e.>.>.>.l = Q >.>.>.J B A c 8.9.g.&.R B B 2.>.",
"R.` 6 p >.>.>.>.M r 6 J f.8.e.l.d 9 B 2.O.>.>.6 6 6 2.f.9.g.O.@ q >...>.>.M r r x e.2.e.n.c c c ..&.>.` p 9 r 8.f.2.g.` ; p O.&.",
"e.` e.>.c >.n.` Q ` ` W ` C.l.O.O.f.R B f.2.J O.` >.B n.C.9.O.2.O.c O.n.Q ` %.>.` ` F.f.J >.p.Q c n.q.B >.J >.A f.C.2.O.>.O.B O.",
"e.e.>.e.>.6 p ~ e.>.>.8.B R O.2.2.2.f.B 9 B 2.2.>.>.O.c O.>.&.2.e.>.9 p ` p.%.%.p.c J O.>.>.>.n.M 6 B 2.>.>.q.>.B O.&.2.2.e.O.p ",
"` >.>.q.>.J p ` e.>.2.f.O.d d f.2.2.2.O.B 9 f.2.O.2.f.B 6 O.f.>.2.2.W p ` l.>. .n.&.p p n.e.>.e.` c p e.2.O.2.f.S 8 O.n.2.2.2.B ",
"J >.2.e.` p.e.J ` >.2.2.R 2.A R f.2.2.O.C.O.B 2.2.n.E &.>.J 2.2.e.` f.e.J ` >.8.>.J 8.~ W e.e.q.` F.` J >.O.f.R O.2.J 2.2.e.` 2."
};
