/* XPM */
static char *_579300930165[] = {
/* columns rows colors chars-per-pixel */
"64 64 75 1 ",
"  c #1E1A13",
". c #221D14",
"X c #231F19",
"o c #262116",
"O c #292217",
"+ c #2A251C",
"@ c #2E2A1E",
"# c #302B1E",
"$ c #2C2720",
"% c #2E2921",
"& c #352E25",
"* c #382F25",
"= c #363026",
"- c #3A3226",
"; c #373128",
": c #3C352B",
"> c #3E382E",
", c #3F3930",
"< c #40372A",
"1 c #423A2D",
"2 c #483E2F",
"3 c #433D32",
"4 c #483F31",
"5 c #464135",
"6 c #494336",
"7 c #464238",
"8 c #4A4639",
"9 c #4D493C",
"0 c #514535",
"q c #514837",
"w c #504738",
"e c #524B3D",
"r c #5A4C3E",
"t c #55503F",
"y c #534E40",
"u c #5B4E41",
"i c #565142",
"p c #595444",
"a c #5E594A",
"s c #635544",
"d c #615A47",
"f c #695946",
"g c #625649",
"h c #635B4C",
"j c #6A5D4B",
"k c #695E50",
"l c #66614F",
"z c #6B614E",
"x c #74644D",
"c c #7B664D",
"v c #7A694E",
"b c #6C6553",
"n c #6F6956",
"m c #746752",
"M c #756A54",
"N c #7A6C55",
"B c #736D59",
"V c #7C6F58",
"C c #76705C",
"Z c #7B735D",
"A c #7D7661",
"S c #7F7962",
"D c #80755D",
"F c #87795F",
"G c #827661",
"H c #837B64",
"J c #897D64",
"K c #857E68",
"L c #85816B",
"P c #8B826B",
"I c #8E886E",
"U c #94896F",
"Y c #948B72",
"T c #999276",
"R c #9E9779",
/* pixels */
"prsxDDfDfDccccccnnvvvnllddvCnAACCnnnCnSnMMZZLLDDDDZvvvnxdsfrrrrr",
"gu4644202<0020225tttqtqtqqqttttt9t899tt#qqttttttttttqqq655<<<<2r",
"gy;:*<<<<<<<2<2<1111111111151556555555q#q6qqqtqq66555511***#&&2u",
"h4::<<<<<222<<<<1#11221112555555555515t#q6tttqqq6665351<-#*#&*1u",
"h3;;;;<<<22<2<<*11511555515551555111551#q6qqtqq866655<<<:;;;&&1s",
"h4;:;<<322<22<<*#1515555968555511111116#q5tq8qq5666651<-&;:;&*3s",
"k3;:<<<32222<<*<15555555565552111-11#15#t8qq6q986651<<--::::;*3g",
"g4::<<3322<<<<<21559588896995511115#115#t6855585661<1<--::,:<*3g",
"k3::,,3,22<1<<<<555595889989855111<#---#t55>5558841<::;:::,,,:7k",
"k3,,33,72231<;<3,588598569999511112#--1#t5>5559t83<<:::::3,,,,7k",
"k33333,32221::<<,5889558966955511<#1---#85,559t9443:::,:,,,,,<8B",
"k4333373222<33,3585898989699551>1<<<---#8>,,58t543::::,,3,7,33wB",
"x43473773773,33,559898989998555><<<#1###5#>>>55541::,:,,,,73,,yC",
"x43y3yy37737737758999998999878>><11#<11#8;>>;#>33<<:,,,777377,yG",
"m83yy47787477477899999889988997,22<<<11#5=>>;;3>:::3,,,77778739G",
"My7377yy8878777889999998999999876122<###1#=#>;>>,,:,,,,,777773uZ",
"Vy888989888588888899898999999tttq606<>:%5;;;;>:>::,,33,7777777uG",
"Zu799888888885899888988988999ttttq6651:@5:::>::>,3:37,,7777797uK",
"Gp899888858655568888589589999tttttq61<:%5::;>;:>,,,,7,77777777pK",
"Gp7888975555555688855588888899ttptq651>=6>,:::>>,,,7,7,,777777aK",
"Sp988887555555668655555678859ttipttq51>&8>3>>;>>,,,,7,77777777aK",
"La789888555555655212555687888tiaptee5>>=8>33:>3>7,<3,77,,77,78aK",
"Sa888888686566652266166679988tiipeeq6>,;9,33,3313333,7,7777777yS",
"Si88888766665511522126667999tttaiteq73,;9,3753313333,,,,,,777yyA",
"Si887787777751111<<2155569tttattieq8653&8,77,733333,,,,,7,7777yA",
"Si7775777788315<-1111225699ttaatte9663,;y,77775333377,,77,,777yA",
"Ay7757775555531<11-1155669ttttatii9685,;y777,533333,,,,3,77777yA",
"A97755535775553511---155689tttttpit9987;y777335353,,,y3,7,7777yC",
"Cy77,7335885555511<-<225689ttttappieee9;iy885551321333y3,7777,yB",
"B7777,55855588852---<<25668tttttppiee99:iey8655255553,33777777yn",
"l77,,375555555851<<1<252589tttttppiiee9;ieeq66666655,yy,77777,7n",
"n7,73755858858551112226559ttttttppppeee:ieeq60666655y77yy77777yB",
"b7,75555656588554414e4979yyyiiygpppieee:uyy4y4y34y,334y883,y,7yn",
"b77355556858855544464e98yyyyyyggipiyeq9:uyyyy373337334333yy3y7yB",
"B735556558588877844wuw8yyiyyyayyiyyeq99&uy9yy77733333::33yyyyyyB",
"Ay5555655555888674w44yyyyyayyyyyy999869&ey9y3,3333:::--<333yyyhS",
"Aiy,5575555588887866799yyyyyyuyyyy8866w&y9747,33,,:--*=;,,,y7yiS",
"Sp,y55553355788657657yu9yyyyu9973348446=ue733,<<::::-*-:,,777yaS",
"Say785515>555566666579999y99y9y77784464$:;%$$$$$$$$XX$+$$%;;;;,i",
"Sayy9965>5>556656255777999979y7r774844%8gu9w87744333604wyyyiiiaB",
"Inyyyy7753355553155555558y9798w773443$3u4333<<;<::::,,333,3788pL",
"TCyy975,1>165555>115215578y99y7wy383$;y4331;&<;&;;:;,,,33,3488aI",
"RByye77,1555553>>><<135177897777444;343333;*;;&&;;;:,,3333788yhY",
"RByye7555556513>::><23123347733343$3u31333:*;;&;;;:,,,,333889ylI",
"RC9yy8555566733,::<::1131:3311113$<y<3333<<;;*&;;;<:,,3,3388y9hY",
"Tn9y97735556843:<:-:::::::<<:31<$;4*:33<<:;;;;;;;::,,,,,,44899aI",
"Tn9ee873555753,:::**;:;:;::;:::X:w1::331<<,:<::::::,,,,3,34889pP",
"St,577,,,,,5333:%:;--;--::::;:&<441::311<33333,<33:3,,,,336695pK",
"Ll9iuieeeeett996ot531535552<11<1::>:;>,,333333333333,:3,3333y3iK",
"In69ew66413333,:o9==##;:#===;;;;:=::::,,,333777533333,3338y333yG",
"Yb68w665513333::.9-##:>:::-=-&&-=:;>3,,557377878833,33,,8yyyy3yG",
"Yl68642632333>:;.q-=>>>>,1-=&-&&#=;>333,335587773333337,4y3yy4yG",
"Yz50511311121::;.6-=>,,33,:;;;&=-;:>,337777798874y33373y777yy3yG",
"Uz5842111112>::;.6<1,555,7,:;;-=-:>3,3533777898877y3884yyyyyy38H",
"Yz56442311231<:- 61>558575,,:-&*-::>333337788888yy33y8yyyy8yy88J",
"Yz16643266061-:-.815558573,,:;&&;:>>,,,,777888883yyyy8y87yy8848J",
"Ix56066600061<:- 6255688774::=&-;:::33<355558866888y8yyyyy7y33yK",
"Pz506656rq62<<<-.2<66688874::&=&-::3:3335556886588yyyyyyyyyy3,6G",
"Fd55660qrq065<<-o5<56q897333:;=;:::::::3256666506w8yyyyyyyyy4:6D",
"Dr<<560trq6062<-O6156q965513::::::::33<3252665566684y8wy7y341*2D",
"N6->650qq06662<-O5<6665555<>:,:,:3:3:3<30<<<<206066898yw8yw4<&3m",
"z2--<<<0055<---*o5-<5<>><::>,,,>::,:::<3<2<<-<5644434899444<-%1j",
"e&++##-<-###OOO#o#####@=@@==;;:;;;&-=--;-#-##-----:-::111:<%$X-f",
"*  .oOO#OOOoo.oo.O....o.o oo++$+++X+++OOO.oOOOO+@+@+++%%$X+XX.Xu"
};
