/* XPM */
static char *_579200459348[] = {
/* columns rows colors chars-per-pixel */
"64 64 75 1 ",
"  c #000106",
". c #05060B",
"X c #07080D",
"o c #08090E",
"O c #070A11",
"+ c #0C0D13",
"@ c #0F0F19",
"# c #0F1015",
"$ c #0E1118",
"% c #111217",
"& c #14141B",
"* c #16181D",
"= c #191A1E",
"- c #161621",
"; c #161920",
": c #1B1C23",
"> c #1C1F28",
", c #1E2025",
"< c #1F2229",
"1 c #212226",
"2 c #24252B",
"3 c #27292E",
"4 c #292A2F",
"5 c #262731",
"6 c #272A31",
"7 c #2B2C33",
"8 c #2E2F38",
"9 c #2E3136",
"0 c #2F3239",
"q c #303136",
"w c #33353C",
"e c #36393E",
"r c #38393E",
"t c #373741",
"y c #363941",
"u c #3A3C44",
"i c #3D3F48",
"p c #3E4146",
"a c #3E4149",
"s c #414347",
"d c #42454B",
"f c #46494E",
"g c #48494E",
"h c #464951",
"j c #4B4E54",
"k c #4B4E58",
"l c #4D5057",
"z c #4E5159",
"x c #505155",
"c c #52555C",
"v c #55585F",
"b c #595A5F",
"n c #545760",
"m c #565961",
"M c #5A5D63",
"N c #5C5E68",
"B c #5E6166",
"V c #5E6169",
"C c #616267",
"Z c #62656A",
"A c #66696E",
"S c #666970",
"D c #696C71",
"F c #6E7176",
"G c #72757B",
"H c #797C82",
"J c #7E8186",
"K c #82858A",
"L c #85888E",
"P c #92959A",
"I c #999A9F",
"U c #979AA1",
"Y c #9DA0A5",
"T c #A3A6AB",
"R c #B0B3B8",
/* pixels */
"G2@-***-:----&&::::$->:1255115>727788743441q7qw0qwe993eepep99ZJJ",
"D@&83,-O28:122441:&*fw8wwttt711miissidpr4=pxggffgjjs3eZxxp3aDJUB",
"C#*4,=.7w21224411o$f33321124%odq22442437o*x474749944Xla49, paFYG",
"qoo##o &+o@@%@+ooo$,***@&&@**&=*====22231==3179q4peff4eep9e9eVRz",
"7o2rwquw8557rqtupywp098pgdt8uuuuidzahjkkjbcg9pzljvBcvVGaefMMvZPV",
"r+*+#w685.@i47tqw07<* yaiddidday ykyuuuplgg4 mzhjjjjjlj+eLjzjvJJ",
"w=:%sc408@uNtiutyafa,1Dfhhjxxkkq8Snhkkhkclj9fFzlzjznvBaaZAzfavJF",
"rw7gbshddxxuggxcfflcaFBlcnnncmchGnzMnVSVBBDDHBVnyhVnBvBBMxBpeJBB",
"egega7lmcMnccnzncjkzllllmcmMcvcvkkkcvvvmcmBMllzlaamznzncfvp9jasB",
"eVweDppBjMMcznkzzvllkllfzccczczzkhflhhcvvzkkljllnclnnnncebx6Gfac",
"3fM4DzvBjmxxzczzzvzkzlljcmnczcccklhcklmmvvzvzzlhazjzcnnz93M,BvMM",
"93OpbjcBjmckkczxczczzkllzczzkzczlhcccvBBBbvvnzljjzazcnnce9X9Bavv",
"9p,fcjnvgcclkllczmzlccczlklllccccznnmBVVBMmbmvllzzjzvvcMes99baMv",
"eg9eBhzBlchzklclzcnlzzcvkllhzlzvzzmNBBVBBBVBBBMnzzzlvccMpfe3Bfxv",
"ej9pBjhzBAkzzjlzlzzzzzzzlzhlzzzcccMNBVBBZBZZVVMmvvnlccmBefeevflf",
"ef99jjzw0AkkzzlzcczzzlzzzzzlzllczmmBBBBMBZBZVAmMmvmvcmBBefp3ffxs",
"9f69jjxvyklllhllcclllllllclkllzcccBVBAVBZBBZBBbBMmmmbMBBepe<lalz",
"ea69xaxMlvfkhllhllllzclllcllllczlcBBBVAVZBBBBBBBMmvBBZBBpap<zlvv",
"9g99aADvvkhkhhlklllhllllhlkhhllllcmBBVBVZBMMBZZZMvmBZFZBpap>aaHv",
"9a3,9#vGvlhllllllllfllkllkflhllzcccBBBBBBBBBBbBBMMBBBZZZepe;pX9G",
"9x33s*3FmvllzklzllhhhhchklhllklklcvBBBBBMbBZVVBBBZZAABZApap;l99v",
"4gs,vfaDMczlzczkhllfklczlllhhlzlccvvBBBnMBZAZZAAZABBZZZBe9M;xalB",
"3,3=vfcZBvccznzvlhlhklcvvcllllzccccBbBMbBBBAZZDDADAZABBBe**#xfxv",
"91X*jjvBmvnmzBcclkllhlcvvzccczzccccvcBMbBZBZAZVZAZZAZBZAe6##jpvv",
"1e33kazVmmnmcvvczlhlkkcvvccczccccncvBBBBBBVVVSZVZBZAACAAeey>jpaB",
"3p33kukZnnmnvvmcclhllzvcvvcvmcvmnncBVVVVBVZVVBMMBBBbBCCCee0;jpaB",
"3p33hulVnzvvvcvclhhlzzvvmmvccmmcBccnAVVVZZBBVBNVMMbBCbZZ0p0>apkm",
"9s13juknmzlvvzzlzhlllcccmvmmccmmBBvnBVVAZBmMmNBNMmBbCZFCwp0;kpaz",
"9p4=fefbccccclccczlhlczcvccmcvcmnBvBBBBBMMmMmMNMbmBBBZZAwpw#apam",
"9p3*jflvzllcllccvzcllvvmmcvczvcvccvvBBBcmmnmcMMmvmBVZZCAwuw$acnj",
"9p3=sgDlllhlzlllllzhlcmvcvvcccczcccnnBnvmccmcmmmMmVBBBCZwuw$a9VB",
"<p2=s uGkllllcllllzklcvmcmczzcczzjznBcvvcccncxncnnNMMbbM9u0$pX*F",
"7b3*u66cvhhzlhzlkhzkzcvvmcvclczzljcvcccnczcczczjnBncbbbCqxi&wwwt",
",qf:uahzzlllklkhffllzvcvmvzvvlkzcjcccBcvvczclcllcmmccccM0*g1rikx",
"2>&*ppzmvlclflzhflllczmmcmzzlffhzlcvcvncccncjcljccmBcvcvw2@otuxk",
"14X$iazcmzhzhlzcllfllkzcccllkfhzjcccnccvzcjaazjzcvzcvlcm73:otuvk",
">83*yplcBvzcccvcczhklhczcczzcclhjcjjcvcczzjajzjccvmcvczc44w%8uzx",
"2r3%yajnmzzcczzvzhllzfcvvvzvccllazajcccclzzljhjcjlvcczzjqwq+8sjj",
"4w1&adhcvzkzczczclclzkzvcczzzclhccljcccvcvczcjacazvcmzlnqq7+ishj",
"1r2%dshcvzlcczzcclllclkzzzlzccckclljcccczcccjljzlzcvncnm7q7+uifg",
"1t1%siixllzzzzzvczcccclhlzzczcclclzllzzzlczczlzzkxnnckxc4qq+wddg",
":w5&qdAbllzzzzzzcczzzclzlhcczvclccccljlzzzzcczzzxkzccxxn54q&77CC",
":q5-8.rGzlzlzczzzczzlzzcllczzzcczcncjzjlllcnzznzczhkckxn478@wo@C",
":d2-q+#jzllczzvzzzllzzzclkllzclzclllzljczczczcccczkxkxxb5rr@w-1q",
"%5f:y5ullllzzzllllzzlklzchlccccclllczczlzllzlczzzcccxvcc1+g1t5uk",
"-%2*q8hzhhhzhlllllzzllzzzhllllklclllllzjzccccllzcnnncvbc7%=+w7ik",
">- XytahskhllklllklllhlkhlhkllllllzlzlkjllzllzccnmmNbbbb7*@ wrud",
"*1,Ou0yhfkllchllhhhlllhlfhllllllzllkkjhjjklllznmmmMVCZAb7=4oqtti",
":31orwtnggkjxkjkhhjjljklhllklllhmacccaazcmcMzcmmnNNbCAAC815+8ttg",
"*72#rwicjjjjkkjhlhjlzczczhlhllllzzzaccmmzacazvMmmMCCVVCS5>7+qrtg",
"&44@wqijffjkhkjhhlzjcmmcclclccllvczzmmcazzczcMmmvNMCZVZS5:7@85ud",
"&11%w5rgghfzjjxklkklxmmzvccccclcmacvvmccMacczccmbMNCNMNN7:7@w5ti",
"=22#8ucshflkjxkjjkjjncmmcvclcclcczmmccmcmccvmmacmMmNnNnN7=7@77Ar",
"*1<#7,xdhhhkxkjjfkzzcmxmcccczllcamvvMmvvzzmzaccmnMnnnnMN5-2@7#qg",
"-52o1 #blfzjjkfdjkjjcmccvczczhfklzcccmczvzacncnamcncnnkN55qo1#op",
"-88+w14djhxkkxckxxxmccMmmvvchhlczzmMmvMcvmzzanncMmNNmnMN8-w%447w",
"-@4-524wy0ttww8twwrw8wttyttwwwitepyyayyyepe9epapppppuppp7&qw2qgg",
"-@o1:-&@+<-@-$-:*&-.26<55784<4&tp9yyyyy03,,pppappaape,pxggiqiGIb",
"-.&q71=&8u5787887,#whtttwwww7&8zpyppayya3#xlpaaaaapp$pDfdi+rGATx",
"=.o=## :5+@-&%&##o 8-@*%#@&*+ 7:O$$$$;;;#X,,;;>><923<<3,41+:2gRG",
"=.#14111:::52312253788448852qq77rureaaajssspesllacMcVxVBxdcbcBYJ",
"&.=414rtq:*187wuuuw41*1isgiqeyuu,2gfyypaplfs#3jafllfflB9+bcggcJA",
"-o=#+x75q@+Cuwttwwyw4 hkdhgxllhfopZuffahzxle#AAjccjcvcl5sPMxxxKD",
"2111xgwrr2ddtisssugj4uShhfhjkzlqlZjlllccvlzsBBxcapxcvblxBlcgrcJu"
};
