/* XPM */
static char *_579300922538[] = {
/* columns rows colors chars-per-pixel */
"64 64 92 1 ",
"  c #271903",
". c #2B1D04",
"X c #2E1F08",
"o c #2F2107",
"O c #2F2009",
"+ c #302107",
"@ c #33250B",
"# c #36290E",
"$ c #392A0E",
"% c #3F310E",
"& c #362710",
"* c #3C2D13",
"= c #362A14",
"- c #3E3116",
"; c #3D3219",
": c #423316",
"> c #44351A",
", c #46391D",
"< c #4A3B1D",
"1 c #433521",
"2 c #463A22",
"3 c #4C3D23",
"4 c #4E411F",
"5 c #4E4125",
"6 c #4E4329",
"7 c #514325",
"8 c #574827",
"9 c #53452A",
"0 c #56492C",
"q c #5A4C2D",
"w c #5D502E",
"e c #564B31",
"r c #5B4D32",
"t c #5E5133",
"y c #5E5338",
"u c #625435",
"i c #665936",
"p c #685A37",
"a c #63553A",
"s c #66593C",
"d c #6A5C3C",
"f c #6E613E",
"g c #72643F",
"h c #675B41",
"j c #6B5D42",
"k c #6E5F48",
"l c #6E6144",
"z c #6E6349",
"x c #726544",
"c c #766947",
"v c #786A46",
"b c #73664A",
"n c #76694B",
"m c #7A6D4C",
"M c #7E714E",
"N c #766C51",
"B c #7B6E52",
"V c #7E7253",
"C c #7E7459",
"Z c #81734F",
"A c #827554",
"S c #867956",
"D c #887B57",
"F c #83765A",
"G c #867A5B",
"H c #8A7D5C",
"J c #867B61",
"K c #8B7E61",
"L c #907F61",
"P c #8E815E",
"I c #90835F",
"U c #8D8263",
"Y c #8E8369",
"T c #928464",
"R c #958866",
"E c #93866A",
"W c #95896B",
"Q c #9A8C6C",
"! c #9D906E",
"~ c #968D71",
"^ c #9A8E72",
"/ c #9E8F78",
"( c #9D9173",
") c #9E9479",
"_ c #A19374",
"` c #A2967A",
"' c #A4997C",
"] c #A89C7E",
"[ c #A69C81",
"{ c #AA9D81",
"} c #AFA488",
"| c #B2A58B",
/* pixels */
"zsNGnFUVCz>jrj7umcwfp4w69tsfunGq<quZLAZAJGnCMswq44883:3jHEUYJNJY",
"FFYlGQW~YQrBFLAGUPSPVlPllDGUKG{j9ZHHAHH_!RPIGGPcqlVPF333/[}NN6N[",
"PCFVYUU`Q(eBRTHHUSSSScMMcmvVVj`udRZmDLQ_)YGVSSMVifMIjukBTEV#6BJC",
"PMNUTYFVUQ0nAHLASSMMAgfSMMcu09KruQZSHLLQ!RScIPSMvvMS<3EnjTzeNNNC",
"PCVUUEFzET<jAGTDMMVSZccPGVltsVb*qRIDDDHQW!GSSSgLcfAH87EAVCPPCl;P",
"GxURTTGUKE3dKSDAwxAMPPVVflumGCF38HDPHZILI!UURmgLgvpml9KHVwfVneyC",
"vAPSFGHTUG7mAmHSfcPMDDSVAwuSdaK>fRHDDIZZPT!YSPLLcf4AbrKjMf4,owVC",
"APSMcvPDUG>uGvmmMcvMvxVPTFMRdBB v`IDHSvSVVUGvwt3<pZDxqEvvZf,5MvM",
"dSAcdZAZHH<fFmMmxxMcuixAGVGHGDh@n^GZuZLIZZDDA<8bZDRDkq_LvMfi<vfu",
"vImdvSGZFT<avcAMcZHq:ifPHDFHTBB3z_Ap<AHLLQDvLdZ^LR_Qp3_LMcSMgAmp",
"mmAmAvxSGT73MlccmASdpMivRHHTfxF>k!vu<HRRLIDZLHL!LTLDd3_DPMVMSMMv",
"AvvcLcvHSR9BSvSHcmAAMVAPTRUHvfF>BRZm8DIRZDHgAZZ!QZDHxrLASMAcvxMM",
"mTvmHSAAcKeBAMMPDLTmxAQWRLcALAj@A_ZZZLLIZvgA8cAHLZqakuAkSLAfxmZd",
"nGvAAZZSHG>hPMvSAKSvALALRHHHLF9XZQSDLLRLvDZLRZLDZp3aZrLALSHAAAcu",
"JLEE_Q_!_`93zGblBBWFnFANarmLEbeOAQLEvxQ_mwALZpZduLLLFj`_QHQSZrq3",
"<3333<3339&@O-oo::>*@::***33>+O 23>>::3t7$:<+@:+:q33<:rwq3q>OXX:",
"3rrjdd9>3:::::&O**:1O*3kGJVkkxnBbkju<<uq<<@1:rarbr:::3w8:83wi3:O",
"QEKELLSZFJ3rAbhrAkAZ*r*Z'`^~^KLEWLWEHG_Lj3>ZLL!Q!/SALLZxZLLTRRA3",
"WRKASLLHZAZuFZZAAZZk:khKKEKUGBFSGALGHWAGZ3<LLZLFAZAAHRcfDLLTLHF>",
"HWWTmATZuZEZAaZZZZZZ&kLhVUVUjSSTLLQLLQjZZd3ZrbA8bpuAARSSLLLLTHx:",
"LQWQdgDSLHRIfZAAZZAA:AJAGAnTTQPHTARQRTfZLL3qwLHAAa8gZDDZLLLALLx@",
"DWTKTxdLTTLILHxAZAAH3NKFvASU!HAHTAHRTHAILQ>pADZZDLZgDLRRLSSAv4j@",
"^WQTTAfHLLLQQZZAHAbHrANkvmGPTHMDSTHTTSZLQL3ZZA8ZLLZDLI!ILZSHvjD:",
"H!LLZvLLLQ_`LLZLDxkLabLbvTUPPPDIRTDWLZALLL3FLLZgLRZDIIDRLALAZZJ3",
"KRHHgvTTRWW!!HZZuZLR3F/ZbHHLTPIPTHSPAPPMQD:dLHLDDZgSDDSDSZZZZZd:",
"WTADHTTLRW_TLHAZqDRL1A/FZZGTTIIIdvSHRMpSAH:1ZZZZSZZDvASZHAZASfb:",
"M^TADHAPT__QQLDSDDL!ekQADLAHQLIHfPHPQpp!HA3bADDHZDALcZLLLDDDAZF3",
"SQKFHPmDRL!QLHHRRL3LrZLAHHZLWTHIQQRTRPPP!A3GHZALZgASSZLLLDvDFDA:",
"BEKFGDmSRGT_TTL^QQcL3BbZHHZTLHILWWETWTPHLZ3LLHSQZADLLLLHHHZZZAA>",
"EQ^KLGLGKTW^!_!EQ_/W3BLADLARWILLWQ^Q(TVSbZ3LHLQLLLLLZFLLDAZxkZL3",
"L```^E/cuBakmZKFLZAJ3J'/GLH^`RQkT_W/EAHW^b&AHS^LLQQZZLZxxLFaFAL3",
"&>33:>3*++&**:&*:+O@@2rr3<*979q>><:>>;>73& &::3338q:33<::33&111X",
"h9e6yzzNNN1=;tluyseyh646yhtfzzNe#ay3;9hheyhszsh26Ne6##%,fw6ww#o;",
"JKbz)YFY[C;10EQYYPC066N6N~CW~~}N;JE^~EE[Jh~~)~)YY~GGy,NG~YGJNzNN",
"Je9hYVyY/e kbY!NgPi,;2leUUnJJJ~z1YY)(YK/~sCY~~YYNYYYRw~VGUVNfcCG",
"l6Y~JYhC~C6NVFPVcVChhynnUVZJGCYs6YKVYJ~~CVNU~~Y~YNG~Ne~~VNgwVnnn",
"fnYJPC6yCYeCCPUCxSPnznUJGgMPYJWy6YUezNUUVVfUCU~)~Cn~NiVeYUYfgnw4",
"SPClUNwYhC2zPNCCfcVVMIWUUncUWPW0y~UllNSY)W6zN6yJVGGUJlz6VY~UVVfg",
"UCnUVeyYhN21eCCCCnxfMY~IIZSR~UWehYNVGPRWYWNVU6nViNIVlwVyNNUUUVGG",
"CNNCEzNJYY1=#nCPMxPcncGSUDDGYVJtyUWCJPURRYY~UyV~~UVUV;Cze#6wYUUU",
"NEUCGKlGVU;lBVUCMPxyVfvMVMMPNlUysYYtnYW!)!YUUNsJGGCCV;UNNllzCJUV",
"6U~CCUJCSC;CGUPYCUPfmPnxPPPIcnJ0e~JzyUN~!WR~~CGVNGJfz6YRYNCYYYJ~",
"zeUCnECVFC2CCUCYSPEMnMcxTPAUGNUe;CUJGCnY~VGGY~~Y~~YYN6W~Gg4wnVCY",
"JlJ6;F(YUU6JUWUPVPPNmxtfPSMUGMN2#NYJJGnU~VU~~~~~J)U~J6~)V6NCNVYG",
"GHFZ6VEFGK6UWEJLGHKAmMffKLFPGGT5;U~YGVU~!G~[)~~)R~~~N6~~SnfCNf~Y",
"FFFGHDGHYG5GKJmFbFEBNxftZGSAKGJ3#U'~YG~)~RYU~~~[[UUGC6UyfUnnnC4f",
"TKTEEAUUE~3FTWWWUA(HCCflFGT/QTRr2C~))~)))))))[[[[!~}l#YY~~G6Nz6G",
"3,$<9>03r6X9errsp9qt0st6ru7rq38:;;64hyy6sifsnfiwyyes2o6w66;;##;6",
"9sny<au9r3qh0<kmJAbr3.::jbrrfqudkZbnNBaBGl:bFxzVfiwnnNlnnVllsNy#",
"nW/FBEKvGTAAJbF`~L~/J3FkFLLQWHTWGEEE`/EU~QjUK`QFf~UUSS~RR!)~G)6.",
"KQmtaHv9qGcFHnKF<LL{KaLAHvALSdDITHHTTFGFWWyT^VmmIRUnnIPPSMGGJYC#",
"TTdxAAmmcArST_`FqFGLkhJbLHSTHxDITWUTKAGRY^aUW,eJGWRfSSnfGSUGUWJ;",
"HKaAASDSvclAHPKGHHxZaj^AmAIHZHTTQQWHUFPRUWxWF>zk~!RRUGVgPGISUYc.",
"FHvvSHvSSMPYMGPTLLZLba!DTjmZvTTRRWQHDGGRRYxUAj_TIIIUVDDZSSMSPGe.",
"GLZDRHDGSPMVMPFMZdDLu3LLTAZAGHTT!QLDRWRHQUrTTHTLUZMZDZSUMZCDCfC#",
"KQFSHHUSPUiwFl5tAjZAjuLATHTDDASH_RTHE(nz)^rFmmfSINgGGiigcMIcfVUo",
"GQLDIHDZSSAmHdxMDZZL9aLLLDDIHZZvZIPIS0#0^~hBASZH!guLAkZZScM;wUJ;",
"FWAAWDHAMZZdHHIDALAZ31AFRDZDDii:dISDvaJGWQsEmmSLLw3HASDDPScmnnV,",
"SHvHRRLAAAudDTTHAAAFr*LZAZgZHp3wDPHIPE(W^/rAAASSDppHHSDDVMDnw0M4",
"AAMDIRQLcgAvqnUGZAALj9LFZggDDZZRIPPTW(WE^/yLAmZRZuHLZZSZMiSZ6iP0",
"AGSDLQ!WZvHLddHKFZjFr3GHSSSDDLIDHRQS(VN~_^uELDL/g8DDmZSAPpnHMvl4",
"nTHHHQ!_LZLFdLLjFZZh&ubkHSDHDAI!RSxU)PV(`^dW/LLQHcLHZASLAxBuGVt#",
"jERTT__QQQLLFFmuZZFu:hABZBISZwpSRM8]]]']'`hKLLL{_L_QLQRHKQ`F~^)2",
":3rtuu8q3r0ua3<1*:>:&>rqrpw<:><<wq;lmyttud&19e9upqquupadjxbzhhh2"
};
