/* XPM */
static char *_579200433869[] = {
/* columns rows colors chars-per-pixel */
"64 64 111 2 ",
"   c #010202",
".  c #060709",
"X  c #0C0C0C",
"o  c #0E100F",
"O  c #11110F",
"+  c #0E0E10",
"@  c #110F10",
"#  c #0F1111",
"$  c #131414",
"%  c #181716",
"&  c #161817",
"*  c #191917",
"=  c #161719",
"-  c #16191A",
";  c #1B1B1C",
":  c #201F1D",
">  c #1E201F",
",  c #21201E",
"<  c #1D1E21",
"1  c #1E2123",
"2  c #222325",
"3  c #262827",
"4  c #242629",
"5  c #292729",
"6  c #262A2C",
"7  c #2A2B2D",
"8  c #2C302F",
"9  c #272E31",
"0  c #2C2E32",
"q  c #302F34",
"w  c #263031",
"e  c #2E3134",
"r  c #2F3639",
"t  c #323334",
"y  c #383637",
"u  c #33363A",
"i  c #38363B",
"p  c #35393D",
"a  c #3A3B3D",
"s  c #363D42",
"d  c #3B3E42",
"f  c #403F43",
"g  c #3D4145",
"h  c #3D444A",
"j  c #3E4A4A",
"k  c #424345",
"l  c #43454A",
"z  c #49474C",
"x  c #45494C",
"c  c #4A4A4D",
"v  c #444B52",
"b  c #4B4D52",
"n  c #464F58",
"m  c #4B4F58",
"M  c #504F54",
"N  c #465154",
"B  c #4E5155",
"V  c #4D545A",
"C  c #4D585E",
"Z  c #515255",
"A  c #565857",
"S  c #53555A",
"D  c #58575C",
"F  c #55595D",
"G  c #5A5A5E",
"H  c #535760",
"J  c #555B62",
"K  c #5B5D62",
"L  c #575E68",
"P  c #5B5F68",
"I  c #605F64",
"U  c #576067",
"Y  c #5D6165",
"T  c #576069",
"R  c #5D626A",
"E  c #5F696D",
"W  c #5E6770",
"Q  c #5F6972",
"!  c #616265",
"~  c #63656A",
"^  c #68676C",
"/  c #66696D",
"(  c #696A6E",
")  c #626770",
"_  c #656A73",
"`  c #6B6D72",
"'  c #656D78",
"]  c #6A6F79",
"[  c #716F70",
"{  c #6E7075",
"}  c #6C727A",
"|  c #6F797F",
" . c #717275",
".. c #787677",
"X. c #797977",
"o. c #72747A",
"O. c #75797D",
"+. c #7A7A7D",
"@. c #6F7782",
"#. c #757781",
"$. c #757982",
"%. c #7B7C83",
"&. c #7D818A",
"*. c #838383",
"=. c #888687",
"-. c #83868D",
";. c #85888F",
":. c #8A888A",
">. c #858992",
",. c #898C93",
"<. c #919193",
/* pixels */
"E Y K g ~ o.} / { ` ( Z R o.{ /  .( ( Z Y ` _ } | | @.C U ( K Y Y E ! c Y Y U / / Y F j F Y F U Y S L h B x j v j j g w C E Y ( ",
"U U G l E O.} / ` / ( c ~ { / / ` ( [ b ~ ` / _ ' | | F G ( Y E E ! / c Y Y E E Y U G x A Y F Y Y J R h N B j N N v g 8 C ~ R Y ",
"Y U N k ( O.( ( ( Y ^ c U / / / _ ( ` G Y } ( / `  . .B A ( ! / / / Y N Y ~ Y A G K N j F Y C G J H V d B N c k d a k r C / Y J ",
"Y F G l ` ` ` ^ ( ( ^ Z Y o./ ~ [ o.O.K R ( { ( (  .^ G ! ~ ! ! A Y Y B Y ~ ( / ( ( A x F S N A P J J l C A ( ! Y Y j p F { E ~ ",
"Y F G x ( %.B > y :.( b Y  .~ ! ( ` ..G K ..! , 3 +...Z I ^ ! G A I ! Z Y [ ~ > , *.[ k G S c V P P J x c ( A > t <.l e S _ ~ ~ ",
"Y Y K j / +.c o , =.( b K ` ( ! ^ _ ` G R +.I O $ X.+.M G ^ ! G ! ^ ( G Y ( Y O o X.[ g S F F F P H F g N / c X 2 :.c r V _ ) ~ ",
"E Y Y x / O.x O 5 =.[ b K ` ( ^ ( ( ( S R ..I $ * X...Z ! ^ G A G ! ( G ! ` Y * * X.{ k G A B F G K S p B ^ x O 2 :.c e K _ P R ",
"~ ~ Y x E X.k O 5 *.( Z ! [ ~ ! ^ ` ` S K O.A % *  .X.F A ^ Y G Z I ^ Z Y  .G & & X.{ x A C B B S J J g N ! k O 5 *.z 0 K ` R ~ ",
"^ R ! x ~ ..f @ , *.^ A ! ^ ! ! ! ( ( S Y +.A $ % [ X.c G [ ^ I G I ^ Z G [ D $ $ [  .l J U Z B B C B p B Y a X : ..z t F ( U Y ",
"Y Y ~ c ^ o.f * 8 X.^ M I [ [ ! / ^  .S F  .Z ; : (  .c A ( ~ ! ( ^ ( Z I _ Z ; ; (  .c F K B Z V F N g B F t X , ! l e G ^ ~ ! ",
"Y Y K x ~ ` i * 5 ^ ! M G ^ ^ ! / ^ [ S F ` c ; ; G ( Z Z ! K ! ! K ^ Z I ( c * * G ! x F S C S Z F F g B B 4 $ : c a e Y ( Y Y ",
"! U ! z K ! :   O A I M G ( ! ^ ( ^ o.S K ` t     f ! A Z ! G ! ! ! ^ b K ! q     f K c S S V J F C B g F k $   . a a 7 J ~ ~ ~ ",
"Y K ^ z I Z $     f K Z G ! ^ ( ^ ^ [ S I ! >     7 G A Z I ! ! ! _ / b D F <     8 A B Z U S K F N B a Z d $   . t a r G ! ^ ! ",
"F G I l ! k X     q G c G ! ( ( ^ ` ` Z I G $     : M A Z ! I ! ^ ! / k Z z $     , c c G Y K S C F S d N u X     3 a t S Y ! G ",
"S S D d D f .     2 S l B ! ~ / ^ _ o.M D M +     $ k A Z ! K ! ^ ! ( b b f X     & d k G Y K J J J J d S r .     2 i t Z G G K ",
"D c G f M y .     2 b z S ^ R Y ` [ ` b b f X     @ f M G I I ^ ! ~ ^ k l q .     $ d z S R J L P J S s N 7       , 7 e c Z K Y ",
"m l M i f 0 .   . 2 z k G ( ( ^ ` ` ` b z y .     . a k A ! I ! I I I s d 7 +     $ i d v K L L P H b u f < . . . # 9 9 m S G K ",
"S M b 0 f 7 . @ $ 2 c f G  ._ _ } .. .Z k t @ . . @ k z G [ [ ` ^ ^ D i a 0 $   X , a u S ~ K R ) H m u d 9 = + . < w r H K D K ",
"s s q < 5 2 @ ; ; 5 d 0 x S B S F Z Z i 7 2 = ; ; < q q k S S Z b b d 4 5 > < - ; , 9 4 d k h l l d s 4 4 < $ + + $ 1 1 s d s d ",
"i t 6 < = = < < 2 4 q a k g p e 7 0 q 7 > $ = = < ; < 2 5 4 7 4 6 q t t 2 < < ; & & = < 6 0 e 6 l m b d s 1 < $ = < 1 s d d q < ",
"$.%.! f q 5 2 ; 2 q k ! %.-.>.` I { ( I z y 5 = < 6 s m ~ ] +.H ~ / K D k u 7 ; 2 7 a V ~ o.o.B } } ` R m s 4 < 1 6 s C L R ' h ",
"( ^ Z d 7 , > $ ; 5 y b ` ] #.^ P [ I D l 5 < = = 2 q f H ~ ` b S V b l y 7 2 - 2 3 u B F K Y v R P C V k 0 < = < < r j n C C p ",
"` ( G f q 2 : $ < 5 d M ) { o.I I  .^ I z q 2 ; = 2 q z K I  .M K Z m c d t 2 ; 2 8 u S K U Y b R Y Y F l e 1 = < 1 r h j C J s ",
"( / G f q 2 > $ > 5 a M I o.%.I I [ ! I f q 2 = < 4 q f H ^  .S ! B B z l y 6 ; 2 6 u B K K ~ v Y Y J B k 0 < < 1 1 w h j C J s ",
"` ` K c q < < $ < q a S ~ ` &.I I o.I I z t 2 * ; 4 0 l H ~ ` m K S b c k t 9 < 4 7 u b J K ~ b Y K F N d 9 2 ; 6 1 e s j L H s ",
"} ` ! c i 2 < = < q f S ) [ %.I I { I K z t 5 ; * 4 t v P _ ` S K K S F b t 0 < 2 6 u b J K ! b K Z Z S a 9 4 ; 1 1 e s j C L s ",
"O.` ( b i 5 < = < q f S ^ o.%.I K +.^ I c t 4 ; < 4 e z P W _ S K Y Y / M s q 2 2 6 p B K K R c F c S F d 7 2 ; 1 1 w s j C H s ",
"#.} _ V d 5 < = < t l D ~ [ +.I I +.^ I z t 5 ; ; 6 e l K ~ ` J ! ~ K ~ M s q 2 4 6 u B J S ~ b K A Z Z k 7 1 < 1 6 9 s j C V s ",
"}  .o.V s 0 2 = < t l D / ` %.K K +.` I c t 2 ; ; 4 r c J ~ _ D _ ~ R ~ S s q < 4 7 i S J U Y c ~ G Z G x 9 2 ; 4 6 9 g h V H s ",
"o.o.` S d 0 4 = < q f S R ~ ` D D +. .~ b i 6 ; ; 0 p b K ) ~ S K R _ ~ S d q < 4 5 t b F S Y N G B S S h e 2 ; < 1 e s h C n r ",
"#.o._ m l q 5 < < 7 z G ) ) [ M H +.` ^ b i 0 ; ; 7 a Z K ! ~ S K P ~ Y S d q 2 4 4 e z S K Y c B F V j g e < < 1 1 9 s x N n e ",
"$.} ` B z i 0 < 2 q d S ~ ` ~ M G %.{ I M i 0 < 2 e a b K K O.J K K K ! B d 0 < 5 7 9 g S P Y x F G C x g s 1 = 1 1 9 s g j x 9 ",
"#.$.$.H z y q 2 5 q a b I ^ ( H D #.#.) M s q 4 2 q f D I ) [ D K Y ^ K Z a 0 2 4 7 i l H P ~ b P F C v h s < < < < 9 s s j C s ",
") O.#.S c a t , 7 d d b I ^ ( S I #.] I m s q 4 < q f H ^ ` ` I F K ! ! b i t < 4 0 u l K R ) b J P K V s s 6 < 4 4 9 s h C H s ",
"} o.} D M k y 5 q f f D I I ^ S I #.] ~ M d q < 4 q d f I ) H b D G G S b t 7 ; 5 q i f S J ) v J J J C s 9 4 = < 4 9 s j C H s ",
"$.%...K M f a 5 y f z K I ^ ! M I %.` I M d q 1 1 s f K ` ` ` l b S G b z 0 7 < 5 q s v J W ] m P H C S s s 4 = < 1 9 s n C L d ",
"$.%.%.L M f f q i f b D ` [  .M ~ %.@.I D f i 4 4 s f H ^ ` ] H K K F F m s 0 < 7 s d m L W ' n J R J T n s 9 < 1 1 9 s h n C s ",
"$.#.] K M c z q q a M ^ ` O.%.D P >.%.#.) M d 5 5 f f P ~ ` #.S R } ` _ F z s 0 s s v L ' ' ] n ] W Q W H s s < 9 9 s s n L T s ",
"&.o. .I I c f 5 q y z I [ .. .M P ,.#.@.I b d q s f m I ^ ] o.D P o.' ~ D z s 0 d v m ) ] ] @.m ' ' ' W T h s < 9 9 s s n T Q s ",
"o.] [ I Z l i 5 q f z K G ^ ^ c I #.~ P H m f q q f f D I ^ o.H P ` ` R J b d 0 d l m L W W ' m ' W @.@.Q j s < 9 9 s s j L T h ",
"[ ` o.I M f a 5 t k Z A [ [ [ Z K #.^ ^ K M f i t k z Z ! ( [ H R ] ~ R K c x e k v v P R L ' C W L @.@.T v s 1 4 9 s s d L L s ",
" .{ o.^ K b a q y f M G [ [ [ Z K %.o.I H M l 0 q x c K ^ ` ] S ! #.' ~ U Z x r h c b P R W ' C W L Q ' L n d 4 9 9 9 s s H C s ",
"[ o.{ I D c z 7 t k A ! [ [ [ M D +. .[ P M z q 0 z S G ~ ` O.B / O.' / U Z v u h l b J R ) } C W H ' ' H j s 9 9 6 s s s n H s ",
"^ `  .I G z f 5 t z A ! [ ( ! z D +.^ I D b l i t k b G / _ } S ~ } / / J v c u d l v J R W _ H R P Q @.T h s 9 9 6 4 s v n n s ",
"/ F ( ~ A l a 3 y k M A ^ ! I z Z o.^ Y S b k t t a z Z K ! ^ m E ( _ K S c h q d l v S Y R ( v L L _ ' T j h 9 9 4 9 s s h h s ",
"` ~ ~ K Z c a 7 t f z A ^ ^ [ c S ..^ ! D z k q t k z b D K ! c Y ` ~ J V c h 0 s h v J J Y / v C H _ _ J h s 4 5 4 9 u h n h s ",
"{ ( / ~ G c f 8 t k c G ! ( ^ z Z  .^ G B l f 0 y z l M G G ^ c U ( ( Y J b k e d h x S S U R N K J _ ~ S l s 4 9 4 0 q s v s 9 ",
"o.` ( ! A z k 5 t k c G ! ! ! z S  .^ G Z z k t y k k Z G K ^ b K / ~ L F B l 0 g h h S Y J ~ N Y J _ ~ S n s 4 7 7 9 q s h s 9 ",
"/ E ` ~ G x d 7 8 k c A I I ^ c A [ ! G M a f 8 y k a M G S K c K { R K K m l 0 g g g J L S Y m J L _ ~ L m f 9 6 4 6 e u d l 9 ",
"` K ( ~ F c f 8 8 k z Z A I ^ c A [ ! A c a f 8 t a a c G Z Z b L ` Y J K m d 0 g h c S K K ! v K K ` _ V n d 6 6 4 4 6 r s d 0 ",
"( F ! K A z k 8 t k k c G ! ( c Z [ ! ! c a a 8 t a a c S c m c S ~ Y K K v d 9 p g l S K R ) v C H ] W C m g 1 0 4 6 0 e s h e ",
"( ! ( ! A k y 8 8 y k c G ! [ c A ^ ! A M k a 7 t f k c b G b z K ~ K S S b s 6 p p h B R R ( v m H ' _ L V h 6 0 2 6 6 u h h e ",
"~ / ( G Z a a 7 t a a c A ! ^ M A ( G A M k a 7 8 a l z c Z b z K / V F S z s 5 r p g B Y R E v P P / ) R V h 9 9 4 4 9 u l h 0 ",
"! ! Y G Z a a 3 8 y a c A I ^ k c ^ ! A M k a 5 7 k l z S G F b K / C R H k s 0 t p g c F J J b ! P E / P C h 1 6 1 4 6 r h h 4 ",
"~ Y ~ G x a a 8 8 y f c A A ! z Z ! I A c f y 5 8 a k D ! ~ _ V Y Y c F V l d 4 r p p x Z F J c Y K Y E Y N g 6 9 4 9 9 s j d q ",
"( / ~ G c a k 8 7 a k M A I ! k A [ I A M a t 2 3 a c G Y ! ` S C C x B V g p 4 e t p g b V F j K J U Y J v s 9 9 5 9 9 e d s 0 ",
"E { / A c a a 7 5 y f c I ! ! c A [ K A c a t 2 2 a l F E Y ( V F E U Y F l d 6 r 8 p d x x B N F C Y U C j r 6 6 4 0 9 r g p 9 ",
"/ O.` F c y y 7 8 y f c A A ! z G [ ! A k y 8 2 2 y l F G Y / F Y { E E S x d 0 8 r r p l x F j A G Y Y U j g 3 4 4 0 9 e h d q ",
"/ o.( B l y t 7 5 y f c A A A k A ( G A k t 3 , 2 8 k Z Y Y [ G U ( Y F m c d 7 8 8 8 p j x B g C F Y Y C j s 3 4 4 6 7 t d h i ",
"` { ~ l y t 7 2 5 y a k c c A f c I Z c d t , ; 2 t k B Y G / F G ~ G A b c d 2 t 8 r s a g B g A N G C x j p > 6 5 6 9 r d d p ",
"E / Y g y y 5 : 3 y y a k k k y k A b k y 5 , % , 8 a c G K ! x A F c B x a a 4 w w 3 8 a a d w r w p d 1 3 w > > > 1 w 7 e p p ",
"G G B p 8 t 5 * , 8 y y y y y 3 y z k 8 7 2 ; % , 8 t a c c Z a d d a a y t e 1 3 > 1 w 8 p w $ 3 1 > > & > 3 > > $ > > 2 2 8 e ",
"k j p 3 , , : % % , 7 , * 3 8 * 2 y 2 ; * $ $ + , 2 3 3 7 y y 7 t 3 2 6 3 3 2 & > > > o > > > o > > & o & > > o # o $ & > , 3 3 ",
"k a t > : : O O O % O O O % , % % * O O X . X O , ; 3 2 7 t 8 3 7 2 > ; & > $ o O X X X o o X > # # # o o o . . o . o X & & & , "
};
