/* XPM */
static char *_360_3ebfcfcdb2f355383962274c270b4520093c2e522fbdb6e51aa274b2a6b6ab93[] = {
/* columns rows colors chars-per-pixel */
"32 32 56 1 ",
"  c #000000",
". c #0C0202",
"X c #120202",
"o c #1C0404",
"O c #240404",
"+ c #2B0505",
"@ c #330506",
"# c #3B0606",
"$ c #390708",
"% c #3B0B0A",
"& c #430606",
"* c #4C0505",
"= c #4C0708",
"- c #460B0A",
"; c #4B0B0B",
": c #550606",
"> c #5B0707",
", c #5F0708",
"< c #530909",
"1 c #5B0909",
"2 c #640707",
"3 c #610708",
"4 c #6D0708",
"5 c #640909",
"6 c #6C0A0A",
"7 c #700605",
"8 c #730A0B",
"9 c #7B0A0A",
"0 c #6D1111",
"q c #8C0706",
"w c #840B0B",
"e c #8C0B0B",
"r c #910606",
"t c #990707",
"y c #930807",
"u c #930C0C",
"i c #9C0B0B",
"p c #970F10",
"a c #9D1011",
"s c #A10707",
"d c #AC0706",
"f c #A30B0B",
"g c #AC0A0A",
"h c #B30707",
"j c #BB0707",
"k c #B40708",
"l c #B40C0C",
"z c #BB0B0B",
"x c #C10708",
"c c #C80708",
"v c #C40B0B",
"b c #C90B0C",
"n c #D30606",
"m c #DC0606",
"M c #D40909",
"N c #E50606",
/* pixels */
"               -3               ",
"               6r               ",
"               5y               ",
"               5r               ",
"            .o-ij<+.            ",
"          .>ivlbndvl9+          ",
"         %gxw$X6r.O8gv3.        ",
"        =veO .Owd@X .1vuX       ",
"       ;x,..<pplxpi4o @le.      ",
"      +v6 owe&.6yX@4a- @v5      ",
"      yf.Xu6.  ;4   %f- 1v+     ",
"     +v% 98    ..    @iOXl8     ",
"     wg.@ao           88 1zX    ",
"    .f7 35            +uXOv%    ",
"    Xk* w$            .wOXl<    ",
"%---1v0<a5-X        .%-a0-zu----",
"ydddhNvdMjf$        XehMjdNcdddd",
".XX.Oz2.9*.          .Oy+Oj:.X.X",
"     tw :9            -u @v+    ",
"     3zXof@          .e< ws.    ",
"     oz3 =ao   oO    5w.Ob:     ",
"      5vO.6p@  5q  o4uo.wdX     ",
"      .ffX <i8&ws#5awo 5b$      ",
"       OdiO o1wvMu8@ .6b1       ",
"        Oix1X  6t.  %sv=        ",
"         X6zzq<ws=8gbu+         ",
"           o3ulMmls8@.          ",
"              .8tX.             ",
"               6y               ",
"               5r               ",
"               5y               ",
"               6y               "
};
