/* XPM */
static char *_579300916037[] = {
/* columns rows colors chars-per-pixel */
"64 64 182 2 ",
"   c #2A251F",
".  c #2E2A1E",
"X  c #32291F",
"o  c #262624",
"O  c #2A2624",
"+  c #262827",
"@  c #2C2A25",
"#  c #24272C",
"$  c #292728",
"%  c #272A2C",
"&  c #2D2C2C",
"*  c #312C25",
"=  c #312E2B",
"-  c #2F302D",
";  c #353127",
":  c #3A3225",
">  c #34322D",
",  c #3A352D",
"<  c #3D382E",
"1  c #272C32",
"2  c #2C2E32",
"3  c #312F31",
"4  c #2E3035",
"5  c #2E3239",
"6  c #343334",
"7  c #3A3632",
"8  c #373835",
"9  c #3C3A34",
"0  c #353539",
"q  c #39373A",
"w  c #36383B",
"e  c #3C3C3B",
"r  c #423628",
"t  c #413A2E",
"y  c #423C34",
"u  c #4B3D30",
"i  c #413E3A",
"p  c #3F403B",
"a  c #444136",
"s  c #4A4336",
"d  c #44413C",
"f  c #4B453C",
"g  c #4D483D",
"h  c #504436",
"j  c #524638",
"k  c #514A3E",
"l  c #5B4B3A",
"z  c #5A4B34",
"x  c #62533E",
"c  c #3D3D41",
"v  c #413F41",
"b  c #3F4042",
"n  c #434342",
"m  c #4A4642",
"M  c #474946",
"N  c #4B4A44",
"B  c #474749",
"V  c #48474C",
"C  c #47484C",
"Z  c #4C4C4B",
"A  c #534D43",
"S  c #594F43",
"D  c #534E49",
"F  c #565145",
"G  c #5B5346",
"H  c #55524B",
"J  c #5A554B",
"K  c #5E584D",
"L  c #4B4C50",
"P  c #535352",
"I  c #595552",
"U  c #5D5A53",
"Y  c #5C5B5A",
"T  c #645643",
"R  c #645945",
"E  c #695A44",
"W  c #61574B",
"Q  c #635B4D",
"!  c #6C5D4C",
"~  c #605750",
"^  c #635D53",
"/  c #685E53",
"(  c #655E58",
")  c #67604E",
"_  c #6D604E",
"`  c #73644D",
"'  c #666155",
"]  c #6C6354",
"[  c #6F6856",
"{  c #66635A",
"}  c #6C655A",
"|  c #6D695E",
" . c #726553",
".. c #786753",
"X. c #746955",
"o. c #7A6B55",
"O. c #716758",
"+. c #746B5C",
"@. c #7B6D5B",
"#. c #7D725D",
"$. c #666561",
"%. c #696561",
"&. c #6F6B63",
"*. c #746C62",
"=. c #796E62",
"-. c #746F69",
";. c #767165",
":. c #7B7363",
">. c #76716B",
",. c #7C756B",
"<. c #7F796A",
"1. c #747570",
"2. c #7C7771",
"3. c #7D7970",
"4. c #83745C",
"5. c #87795F",
"6. c #88785E",
"7. c #837663",
"8. c #887762",
"9. c #857964",
"0. c #8B7C64",
"q. c #807768",
"w. c #847B6C",
"e. c #8A7D6A",
"r. c #847D71",
"t. c #897F72",
"y. c #8F8167",
"u. c #8D826C",
"i. c #908167",
"p. c #92846C",
"a. c #98866E",
"s. c #96886E",
"d. c #998A6E",
"f. c #868075",
"g. c #8C8373",
"h. c #8F8876",
"j. c #85827C",
"k. c #8B8579",
"l. c #8F897B",
"z. c #928673",
"x. c #958A74",
"c. c #9A8C74",
"v. c #918679",
"b. c #948A7A",
"n. c #9A8E7A",
"m. c #9D9076",
"M. c #97907E",
"N. c #9C917C",
"B. c #A2947C",
"V. c #A4997E",
"C. c #8D8882",
"Z. c #958D82",
"A. c #968F89",
"S. c #979081",
"D. c #9C9383",
"F. c #9F9886",
"G. c #9D9589",
"H. c #9F998A",
"J. c #9B9691",
"K. c #9F9890",
"L. c #A29583",
"P. c #A59A85",
"I. c #AA9C85",
"U. c #A1978A",
"Y. c #A59B8B",
"T. c #A99E8B",
"R. c #A39C93",
"E. c #A99F93",
"W. c #A69F99",
"Q. c #ABA084",
"!. c #A7A08E",
"~. c #ACA18A",
"^. c #A5A397",
"/. c #ABA393",
"(. c #A4A19A",
"). c #ACA499",
"_. c #AEA99D",
"`. c #B1A593",
"'. c #B3AB9D",
"]. c #B8AFA0",
"[. c #B9B2A3",
"{. c #C1BBAF",
/* pixels */
"#.7.s , 7 q e p 7   K w.M Z U P M 8 e N k G s , e > q p b p 8 { G.S , q 3 7 6 > < a _ +.s 8 7 , 8 > > , j @.| y 8 , e 7 6 , , S ",
"6.z.O.9 y e q e 7 s l.Y.&.N P L n e N H [ ] G F < > e n M 8 K S.g.+.A 7 q 7 9 9 : ) 7.x.+.y < 8 7 a ; y X.7.v.Q 9 9 i 8 i * f @.",
"4.a.z.G d i i 7 Q h.e.u.H.;.f M p e F w.m.9.X.:.F < N n p ^ F.x.#.u.g.f = 7 * , k #.o.y.z.Q y 9 9 q s #.e.#.i.u.S d i 9 < k 7.9.",
"0.0.z.x.} y i ( S.m.i.x./.!.} N d d g.m.c.7.o.x.g.G m e ^ F.P.x.4.8.7.e.I * y ] y.B.y.y.a.x.*.g , G w.N.a.0.a.c.z.] i y Q u.c.p.",
"d.a.0.c.v.y J U.e.0.m.s.x.x.g.[ > &.Y.c.p.s.6.u.N.g.*.N D.x.y.V.c.6.` x.Z.9 } v.x.N.m.s.6.p.Y.*., k.h.4.4.y.s.p.c.M.f s b.u.6.6.",
"0.m.a.z.t.t i l.m.6.6.6.d.s.z.+.> } D.e.#.s.6.y.N.b.w.8 :.h.#.V.V.0.o.e.] : y @.p.y.y.s.s.m.'./ * Q u.u.y.5.d.6.s.h.s , [ u.i.e.",
"6.i.m. .t 6 6 i k.M.9.y.y.u.b.s - d :.x.5.s.4.9.P.] < > < f.c.y.i.c.n.+.a & @ s #.#.#.y.N.!.*.@ = . F u.y.y.9.X.X.a o 8 : Q u.0.",
"0.0.e.r * 0 q 3 9 r.M.u.y.9.) > a M d :.m.B.y.c.:.. > p - d x.s.c.c.g., > 7 = & g y.p.9.b.[ * = , & @ G u.9.u.#.< @ - 6 > > ) u.",
"u.7.f @ 6 5 0 6 > m ;.M.@.g 9 9 n n 7 y +.@.] :.9 , q n 8 @ t h.I.+.y @ > 6 & & o J g.e.^ * * 3 - @ @ @ } v.w.A @ 6 6 6 0 6 > ;.",
"G f = 6 & 6 0 - & 8 f K g < 9 8 n n e 8 , A +.y 9 8 6 p e - O y +.9 = 6 3 2 & $ 6 , / / = 7 = 6 - % - 4 , +.g * 8 6 6 5 5 6 - p ",
"s y > 0 0 6 0 4 & 6 9 * , 9 q 6 e Z M e 7 > 9 y n 6 e b n 8 6 O > = 2 6 6 & $ > 8 & , 9 > > 6 6 4 & 6 8 = y 7 , > - 5 4 4 6 6 & ",
"e.t.y & 6 4 4 6 & 6 g J F 9 > 4 e B n d > ^ 3., 9 p n b p n & F Z.D o 6 2 0 & 4 4 7 +.,.9 & 7 6 6 o 5 & f w.*.= - - 4 6 2 4 > H ",
"z.x.=.y = 6 2 > = m q.:.[ f.a & n Z n 9 s +.G.@.7 p 8 & 8 > g g.`.Y.J $ 0 0 4 > > :.v.b.:.y = 7 4 > $ f v.z.z.} 9 4 2 1 2 $ K v.",
"a.i.e.*., > 8 > g f.B.8.X.g.| 7 d M 9 < R #.#.!.,., o 6 - N L.Y.T.`.).^ + % = 7 ,.b.u.s.e.;.9 = - @ f b.i.p.p.e.} 7 & % + G D.e.",
"a.8.e.n.;.8 8 m f.T.n.o.R @.D.*.N Z k y.P.Q.6.9.z.G 8 > F Z.T.Q.L.T.P._.$.& > ;.T.m.i.0.e.z.7.9 @ d l.!.d.i.0.0.x.+.> > A S.I.x.",
"d.e.0.n.H.N 9 ,.Y.n.7.@.! L./.v.%.F +.P.Q.V.6.T ` G d f ^.[.~.a.B.T.n.Y.(.7 &.S.N.B.a.y.5.x.Y.*.< f.S.N.c.a.0.e.b.G.D d l.m.N.s.",
"a.i.a.b.( = 0 9 r.v.l T l e.Y.,.e y g.~.I.p.` e.n.k , 9 3.[.P.u.o.u.Y.S.D 6 m r.c.8.c.e.e.n.t.i 8 N x.u.y.a.y.u.M.*.e q K M.8.p.",
"4.4.e.Q * 6 0 > 9 | v.L.! u ^ u 8 7 ^ b.B.m.#.e.] = q 6 8 r.Y.x.e.:.D.{ o q 6 i =.4.8.8.0.7.y O 6 - g +.#.4.7.u.] 8 e p > J #.4.",
"o. .~ > 6 6 0 0 = m t.v.*.X * q 8 q i ^ Y.x.G ! y 6 0 w 0 8 *.D.Y.G.{ H 2 0 0 6 i O.4. .@.i = 6 4 6 7 f #.o.+.Q ; 9 e q 7 = F #.",
"W S , 8 7 6 0 0 3 3 m r.~ = n v e v m i Q g./ 9 6 2 0 0 q q = *.H.H o % 5 2 5 q 7 y ] / u 7 0 6 4 6 0 , s } G : a b c e q 7 , g ",
"t 9 9 8 6 6 6 4 2 0 6 n d 8 d q n n Z N 8 , 9 9 q q w 0 0 6 6 > m & 6 2 1 2 5 5 e 7 , t > q > 6 4 4 3 i > , N 9 d 9 d n n q 9 , ",
"^ W , > & & 4 0 6 6 7 U m p e 0 b e q m y y 9 0 0 0 4 4 2 & = m $.9 $ # 1 5 5 2 6 = A ~ , 7 & 4 6 4 & 6 > | ^ * p 6 q b e b e 9 ",
"@.e.G ; , & c C e 6 =.H.K d m m B q i m / ] Q G > 2 0 q q 6 d Q *.~ > 1 1 2 5 3 O u  .=.F , = 2 2 6 &   +.Y.u.S 9 @ e p n e , W ",
"n.L.v.W , 3 n n N K e.M.g.K D Z d e m / b.7.:.G.J $ e L v D 3.e.@.U.G.n $ $ 2 $ S w.v.L.g./ 7 & 1 & > | :.p.v.z.G 9 n n m M =.g.",
"T.D.L.t.K 8 d n ,.7.+.L.D.b.H m m 8 / x.n.o.! +.w.g q n ^ t.Y.Y.w.L.].r.& 2 $ H /.M.Y.L.D.h.] * - & ,.F.[ m.P.P.u.J m i i b.Y.D.",
"p.c.P.z.<.f y *.L.n.9.g.S.Y.t.J e F D.P.c.6.! v./.r.U U (.=.L.n.w.g.T.v.D = &.R.Y.P.c.n.Y.x.r.g 8 j.^.F.s.c.s.x.g.w.I N A.Y.Y.n.",
"c.x.x.e.' < H G.Y.z.X.X.o.m.N.q.A *.u.c.6._ x L.Y.Z.I I G.e.L.m.p.v.`.R.N O I W.Y.c.s.x.N.x.=.d 9 $.^.N.x.x.u.p.w./ i i >.).n.x.",
"B.c.n.] s p 9 K g.#.R R _ c.9.h y A 0.x.6.4.l ` b.W 8 7 N D.u.c.P.~.].=.O & $ m g.9.m.c.c.w.A e n > H u.u.P.8.8.+.s i v = ' f.e.",
"u.z.>.y , e e 9 a +.N.c.[ 9.+.< > m K z.s.V.] X t 7 d e 0 d e.F.Y.[.3.& = & 3 > F b.m.M.h.F 9 n b q 6 ^ D.z.R O.i e n c 6 7 &.D.",
"g.] u q 9 8 q e e F M.x.R ) F 9 p M 8 F u.x.} X 7 e q q q > N R.{.f.6 6 6 2 & 6 9 F h.+.A e n B c 0 8 > ^ g.] y e n c 0 6 q 9 &.",
"F m f 7 i n i v e d J f.| p < 8 n n 8 7 N ' k < m i n c b e 0 Z 1.9 6 4 6 & & & 8 < K J a n b 8 6 6 w 0 t d i e i e w 0 6 0 q e ",
"A f i y 8 e v e e M d < p < 9 6 e M n e > p f 9 v q v n c w w q b 9 0 6 6 > = & 9 e a a m n w q 0 5 8 q q t 7 7 q q w w 6 0 7 e ",
":.u.A , & q e b p p a < y 7 q 3 8 M M p , p g : 9 - q b c n 8 &.K.J 7 q 6 7 7 > 7 u O.:.g = 6 0 q q 0 - F ) W A > 0 0 c 0 q 7 H ",
"6.u.@.< 8 n n n n p J } K G , 3 p Z n p , | u.G 9 - p b n 9 } S.e.:.G , 7 > i t :  .q.v.:.y , 0 6 4 > g g.0.o.b.D & 6 6 3 * A @.",
"4.y.x.! s d n p d U h.e.+.F.U $ b Z d , s +.9.9.Q < m d i | !.s.#.u.v.S , 9 9 y h  .4.0.x.O.y * > & N b.n.0.o.b.,.d = 6 ; G 0.4.",
"6.s.x.N.+.f d 9 U S.M.y._ O.w.A e m d F #.c.#.p.L.K m p } L.N.m.4.6.#.g.} 7 A @. .` 6.a.s.c.<.k 8 U S.D.z.0.4.p.L.w.I 9 ] p.d.6.",
"0.a.0.B.b.| d J S.M.p.z.O.e.`.t.( D Q n.~.N.y.c.z.b.r.H D.L.z.m.I.x...n.A.m =.L...E 8.d.8.c.D.w.y +.D.z.#.c.0.0.L.S.^ m v.u.0.4.",
"6.0.6.p.w.s > J L.h.o.m.4.n.T.Z.^ g :.P.Q.N.u.N.M.w.~ d [ M.p.u.x.c.e.L.^ y f r. .z 8.0.6.a.v.H 9 , ;.u.X.z.6.#.x.} 9 9 F q.5.4.",
"0.4.4.+.< 9 8 > { u.+.c.o./ b.^ > , :.Y.N.m.u.Y.S.d i Z d ^ u.e.8.4.Z.^ q v e q S T 0.6.7.9.J i e 7 > [ e.z.7.s y 9 e n 8 s Q #.",
"c.p.R : 9 9 8 i = ] w.b.7.: y 7 9 8 f <.D.c.g.l.N e n C M a ] v.g.7.*.y m v q e = W n.t.@.i 6 c q q 9 a <.n.] . = 9 q n e 8 : :.",
"J ] , ; i i i n n D =.Z.} * 7 i 8 e p f f.M.+.F 6 0 B Z B d q F =.' e i b p 0 0 0 7 ~ w.d & e b p e c 6 v ( A = 7 e n e q e 9 8 ",
": , y 7 7 q n f n D K ^ A , v i p p L d a { U a 0 0 B n b e i i y m n n 8 6 5 0 0 q , , 9 8 q n p e q c i r i i 7 0 e n n q b e ",
"u l , q 6 6 d Z e N N S i 9 v e p n n Z y * > e 0 q n p e 7 > s m u i e 9 q 0 6 q 3 , k 8 , 0 q n e B i u D i t > 6 e c e n e e ",
"l :.S ; > 7 n 8 e m J t.J , i * q p p e i A A 9 6 0 n e 0 , y r.w.*.t 6 0 0 0 0 3 D f  .k = 7 q n 8 i i =.=. .S @ 6 q q 8 e A I ",
"e.n.t.] 9 i i e v ~ t.t.=.G i * e n B d *.=. .w.y > e e a < Q b.:./ ~ y 6 4 6 > i r.7.x.g.O.9 9 n & 7 K Z.8.@.t./ i e e 6 9 ] g.",
"e.L.~.Y.^ m d 7 A t.n.e.e.7.} t d d D r.D.e...v.} > 7 Z N F :.y.z.X.L.+.* > - > =.7.e.L.n.L.} M n = A 9.e.4.T L.E.~ v i , W w.n.",
"0.0.m.z.v.~ y f v.I.m.c.8.e.D.^ f y r.Y.n.` T o.g.Q < f :.h.q.:.n.X.B.q./ f 9 J D.6.4.i.B.z.g.*.a g q.m.n.8...n.v.v.H y A e.n.n.",
"0.4.e.w.w.*.9 *.c.B.m.m.0.t.n.r.K *.T.L.0.4.X.g.P.g.K J F.M.u.9.z.#.p.7.*.Q J r.n.c.p.X.8.u.v.l.f | n.N.a.....B.8.e.*.d ,.n.n.a.",
"c.0.c.e.*.i 8 m r.t.n.I.x.M.Y.} p f b.b.T E x 8.c.} y 9 | f.u.h.y.y.7.D.^ 3 i 2.S.N.B.6.p.u.H.K > d r.b.n.n.a.n.e.@.i q A v.n.c.",
"4.6.8.7.y = 7 7 G U.N.L.m.g.+.9 d 7 f :.u.B.#.o.w.< 9 8 , { S.u.u.#.w.,.$ 3 c 7 :.#.0.e.9.u.K @ 6 6 f :.7.p.8.9.,.u = e 6 A <.8.",
"4. .} i & 0 2 n e *.U.L.F.G , 9 9 d 8 K S.N.E ) A = 0 0 0 7 &.b.h.:.&.$.0 0 0 6 9 ] 4.` :.J * > > 6 , a X.@.X.+.d & 0 6 6 > s @.",
"W / t 3 7 2 0 c 7 3 *.Z.F 9 m m e 9 M d G h.;.a 7 3 0 w 0 q = ^ S.^ = $ 0 5 5 0 , < _  .k > 7 6 4 6 0 > y } ) y & 2 5 2 4 8 > s ",
": ; > 8 > e C c 8 q = 7 a A n e d n M M i t y e 0 q 0 0 0 0 6 = N 8 4 - 1 5 4 5 q 8 > y = 9 > 6 4 6 3 q 7 , 9 = 1 5 5 2 4 4 9 7 ",
"~ *.f > > 7 c c 3 = q I Z e n 9 0 d p d y , y 7 0 q 6 6 6 & 3 8 U p - 1 1 5 4 4 0 , s Q y 7 & 6 4 4 2 6 - A U o 2 5 2 2 4 2 6 > ",
"7.:.q.> > > 0 0 e q +.D.} u i * 0 p n q f  .T S > 4 4 w 0 6 7 G +.' > & 2 2 5 3 O y q.:.r., = = 2 2 3 + y [ :.A & # 1 2 4 & @ f ",
"z.z.v.] 9 0 0 6 t ^ v.g.u.O.A , p m m G e.u. .D.} & 0 C n n +.w.+.l.K.D $ 1 2 $ 7 @.t.w.v.O.y = & & & A <.g.D.g.K - 2 2 & @ K r.",
"T.L.L.v.{ 7 > - ^ v.c.z.0.8.g.k y 9 J Z.N.0.! @.w.S t v N -.t.E.g.v.[.D.9 + $ 7 G.D.L.I.D.b.+.; * o H E.S.P.B.L.g.^ > & o } ^.b.",
"c.z.I.z.f.F 8 F n.B.B.c.0.8.P.w.K N b.Y.B.4.! @.`.t.%.V A.D.t.L.u.w.P.D.' @ H C.Y.P.D.x.P.n.t.K = &.D.T.L.n.x.I.x.f.F 0 2.G.Y.N.",
"x.z.c.x.:.g , P t.n.x.c.z.c.m.g.^ K Y.N.7...! 9.`.D.j.v W.G.v.I.e.p.L.!.=.@ D W.Y.D.x.p.m.N.e.Q $ ( (.T.n.z.z.B.b.:.F 7 >.).L.c.",
"m.m.x.w.J , 6 8 } b.c.P.M.h./.^ i , +.N.R E l  .D.k.i y m Z.b.c.B.P./.).f @ o m Z.u.b.M.x.z.O.t & % J v.e.n.c.c.e.W , > O } b.9.",
"m.b.b.Q , 8 0 6 p j.!.M.P.M.| , Z M > K t.P.q.r A y i v 3 m w.n.N._._.H $ 2 3 & f f.M.b.N.q.y - = 3 & G b.n.c.c.) > , > - - ' M.",
"f.w.W y 8 6 5 0 - g h.Y.F.F a L L Z e A q.g.g.< O q q q c 3 i D.[.].Y & 0 2 % > 9 J b.u.+.f < 7 & & 7 9 ^ b.q.Q a 8 > & & 8 p | ",
"K U 9 9 - 6 5 5 8 - N ,.Z d P P Y P b H K *.[ , e d n c c c 0 m J.$.2 0 6 6 & & 6 6 J ;.a a > 6 = = 3 6 , { ' t p : 9 > & > 6 8 ",
"> 7 7 6 p p 8 w 5 w > - d P H Y Y P e Z H M f 9 d e c n c c c q 0 0 w 4 4 6 & & 8 p p a a 9 > 7 6 & & 9 i 9 i d 8 < e > & - e p "
};
