/* XPM */
static char *_579200453639[] = {
/* columns rows colors chars-per-pixel */
"64 64 120 2 ",
"   c #020202",
".  c #090606",
"X  c #0A0906",
"o  c #060608",
"O  c #090709",
"+  c #0B0B0B",
"@  c #0E0E11",
"#  c #100E11",
"$  c #0F1111",
"%  c #121213",
"&  c #191917",
"*  c #151618",
"=  c #17181A",
"-  c #1A1A1B",
";  c #201F1D",
":  c #1E1E21",
">  c #211F23",
",  c #1F2024",
"<  c #242324",
"1  c #282627",
"2  c #2F2A27",
"3  c #262629",
"4  c #292728",
"5  c #26282A",
"6  c #2B2B2B",
"7  c #302D2D",
"8  c #2F2D30",
"9  c #343232",
"0  c #383735",
"q  c #36393E",
"w  c #3D3C3D",
"e  c #423E3E",
"r  c #3E403F",
"t  c #42413E",
"y  c #3D3E41",
"u  c #413F40",
"i  c #444444",
"p  c #484544",
"a  c #4B4A47",
"s  c #464649",
"d  c #47484A",
"f  c #4B4B4C",
"g  c #504B47",
"h  c #524E4D",
"j  c #50514C",
"k  c #4F4F51",
"l  c #524F52",
"z  c #4F5150",
"x  c #535354",
"c  c #585755",
"v  c #5B5956",
"b  c #565659",
"n  c #57585A",
"m  c #5C5C5D",
"M  c #615E5C",
"N  c #625B55",
"B  c #63615F",
"V  c #6A635E",
"C  c #5E5E61",
"Z  c #615F61",
"A  c #5E6163",
"S  c #5E646B",
"D  c #636364",
"F  c #696664",
"G  c #666867",
"H  c #6C6966",
"J  c #656669",
"K  c #696769",
"L  c #67686C",
"P  c #6B6B6C",
"I  c #706762",
"U  c #706B65",
"Y  c #716E6D",
"T  c #6E706F",
"R  c #73716F",
"E  c #636770",
"W  c #656A71",
"Q  c #6D6E72",
"!  c #716F73",
"~  c #6E7174",
"^  c #6F7279",
"/  c #727375",
"(  c #787576",
")  c #757877",
"_  c #747579",
"`  c #79777A",
"'  c #75797C",
"]  c #7A7A7C",
"[  c #807E7F",
"{  c #80807E",
"}  c #737780",
"|  c #767981",
" . c #7C7D82",
".. c #817F82",
"X. c #7E8185",
"o. c #7E848A",
"O. c #828285",
"+. c #898685",
"@. c #8E8A87",
"#. c #83858A",
"$. c #88878C",
"%. c #84898D",
"&. c #8A8A8C",
"*. c #908F8D",
"=. c #8E908F",
"-. c #93908E",
";. c #858B92",
":. c #8C8D92",
">. c #928F92",
",. c #869197",
"<. c #8D9093",
"1. c #86939B",
"2. c #89949B",
"3. c #939394",
"4. c #989697",
"5. c #969897",
"6. c #959599",
"7. c #99969B",
"8. c #95989F",
"9. c #9A9A9C",
/* pixels */
"H Y F D B V V B t V ( O.] 3.3.x f a +     + D +.X.]  .] ..#. .o. .o.O. .2.3.L L t X     & x ^ ~ ' ^ ~ ) ^ ' ) ~ P L G ~ P ] :.i ",
"F F M F V V V V v V ( ] .. .3.>.f f s X     + D O.( ]  . .#.;. .o. .O.X. .3.7.P P i .     - G ' ~ ) T ) ~ ' ' ) ~ T ~ T G G ] %.",
"p F F I U V V U B B U (  . .] 3.5.j j i .     + n O.]  . ...o.o.|  .X. ... .7.7.H G i o     = A { ^ ) ~ / _ ) _ ) / ~ P G J G / ",
"% p I F U V V U V V R ( ]  .] ] 3.5.x f s +     @ C $...o. . . . .|  .X... ...7.3.G G i .     = A ) T ~ / / _ _ / ) ~ D D D A A ",
"  % t B H V V U U F ( ( ] .. . .] 5.-.x f i o     % J $. . .o. .X. . .#.#. . . .5.=.H H i .     = m ( ~ P ( / ' ` ) / G J D A D ",
"    X t U H V U H U ( ` ........] ) 5.5.f a s .     % C #. .| | o.;.$.#.#..... .X.9.6.G H p . .   * A / P ~ ) ] ] ' ) P G L G J ",
"      & g R U U H Y ( ........] ] { { 3.3.i x s + . o @ C #.}  .#.$.$... . .$...O.#.9.6.G P p +     = m ) / ) / ! _ ) ~ Q P L D ",
"<       $ a R R Y Y Y ` O.O.` P R ] ] ( &.=.p l d @ o   @ C .. .#.o.O.#.|  ...#.%.;.#.6.3.G Y u o     = D  .H A P Q ) ` ~ Q J C ",
"M 1       + i H Y F F P ( ) T F H ` / ) ] :.&.d x d o o   # C ;.o.X.X. .| o.%.o.%.,.;. .>.>.K Q p .     : n K b C / ] ` P G L K ",
"D F <       + e F H F P H B F F D K ! ( ] ] :.&.k d d o o   % C O.]  . .%.#.%.o.;.o.o. .} 6.7.P Y p .     % x ! Q ) ] P D D Q ) ",
"F K M >       + w F H / G M B B M D P ( / ] / ;.$.d d s o o   @ C o. .#.%.#.;.o.o.X.X.X.` ` 6.>.U Y d O     * D ../ G D m P ! _ ",
"P D D m <       X 0 B G B G B M D Y / ] ) Q | ` :.$.s k s +   o + m :.$.$.o.#.%.X.X. .]  .` ` 3.>.P ! i o     - n D b C P / ` / ",
"Y / K K V <       + 0 v B G B M H ] ` ` ! Q /  .` &.>.i x s +     @ K $.O.$.#.X.X.X.'  . . . . .7.7.H K u O   . * i n C L ! ` / ",
"/ ` ( / / P 4       + 9 M P B B Y ] ` ` / ^ / Q ` | >.$.i z s +     + m %.O.#.X.X.X.]  .X. . .X.O.7.9.F H u . .   % f K K Q ) ( ",
"` [ [ [ ] ] R 4       + 9 M T T Y P ! / _ G / _ _ ] ) &.#.s l d .     $ A $.X.X.' X. .X.O.O. . ... .6.3.K M e . o   % b ) P / ) ",
"[ [ ` [ { ] { / 7       X 2 B T D F K J / _ '  .` / _ / $.O.k k f +     $ m +.X.' ' ] X.X. . .'  ./ / &.*.D M e o     = Z / Q ` ",
"[ ( `  . ...` ..) 2       . 8 B M D P Z / ..] ] ) ! Q ) ' 3.&.d k a o     $ A O.| ...... .` ' _ _ ~ ~ ( -.@.N F t X     - D O.| ",
"` ! ( ] ! ( ..( { ) <       + 6 N Y U / ] ..` _ ^ _ } _ ` | :.$.s c a +     + m $.#.....` _ _ ) _ ~ / ) { { N M Y p .     = P :.",
"( ! ! ( ( ! ! ( / ] T <         9 Y Y / ..] / Q Q  . . .' _  .3.:.s f a X     + Z &. .| ' ! _ ) ) ^ _ ) O.P v +.Y R i X     , ~ ",
"] ( ! ( ( ` ! ! / / ) F <       X e H P Y ! P ! `  . .) _ ` | ` =.$.s j f +     # M .._ ] ` ] ) ' ' ) ] ) ( P -.9.R R s .     & ",
"` ( ! ! / ` ( ! ) ( T P A <       O w K F D K /  .O. . .`  ._ ` ` &.+.i x f .     # m  .( ] ] ] { ) ^ ) ) ) ' X.6.5.R / i o .   ",
"! ! ! ! Q Q / ( ( / R P P H <       O w H P J ! ] ] O.X. .` _ _ ( / =.+.s x f +     % m O.{ ] O.o.' ) ) ^ ) | o.o.6.5.P T i X   ",
"Q Y Y ! K K ! ( / R / ) P ` H <       O 9 M V H ] ] O... .' / _ ] ` ~ =.$.a c s +     % m +.+.+.{ { ' | ' X.o.o.X.) 5.-.T R a X ",
"! K Q ! Q K Q ! / R / P R T / J 3   .     7 M J /  .O.#.#.` P K / ) { ] &.O.i k a +     $ B %.] / ) X.X.X.o.;.o.o.X.X.9.5.R ) a ",
"K / K ! R P P T P Q P Q / Q H P D <   .   o 6 c P ] O.O.] ` Y J ~ `  .] _ +.O.t c u + .   # b T Q  . . .X.%.,.,.%.o.#.$.8.8.P Q ",
"> K ` H T P P R H L Q ) / P Q P G C <       . 3 D O.] ` Y Y ( _ ] ] ] ! Q / -.+.e l g O     + a ( ..#.#.#.;.%.o.#.,.,.;.$.6.6.P ",
"  < H ! T P T / / P Q ( ` ) / / T P B <         7 Y ] ! F / ] [  .) ! K H ( ( 3...p l u .     + n :.#.$.;.O.X.o.#.;.,.;.#.o.6.2.",
"    < K ( T T / / P P ~ ` ] ! / ) / H m <         7 K ( / ( ] ] ] R Z Z D / { ( *.+.p e e o     # Z :.#.O. .X.o.o.o.%.%.%.#.X.6.",
"      < P ) P R P P P Q / / ) _ ) ) K P Z > o       4 P { { ( P P H M D H R ( ( R >.+.u z f +     # D &.{ { X.o.o.o.o.o.o.o.o.o.",
"0   .   < H / P / / ! / P / ` ..] _ W K K J > o     . 9 R ] Y F m V D K ~ P P ( ( R >.@.i v x o     + D =.%.o.X.| X.X.X.o.;.1.o.",
"$.w       < H ] P Q Q / ( / ) ]  .` ! ! K K Z 3         6 F P D M M F U Y U Y M M [ ] -.+.r m f .     + G ,.' X.o.o.o.o.o.o.1.1.",
"{ +.r   .   < G ) H Q / / / ) _ ` | / W W K E K 4         8 D M v D U U ( ( ! l 7 h ( O.&.O.i c f .     $ A %.' X.X.o.2.o.o.1.2.",
"H { &.w       < H ( Y / / ! ! _ } ` ! ! ! W E ! C :   o   o 9 C D I Y H Q / ! I e 7 M ....6.O.i x a X     % J &. .| o.;.;.o.;.,.",
"P T { &.w   .   < Y / P ! ! ! } ! E Q ^ ! K ! ! G C 3     o o 9 H / K K F / ` ( I h M `  .O.7...i x f +     $ D &.o.$.<.:.;.;.,.",
"P H H O.3.r       < ! / P ! ^ ! K K ! ` | ! W ! Q L Z 5   o   o 9 K D M U ` O.[ ` / / } | ;. .2.O.s m f +     @ J <.$.:.;...:.8.",
"~ P P P O.5.w       > P ` Q ! / ! ! ! ! ..| ^ Q ! K E Z <       . 7 l D / [ ` [ .. .} |  . . .| <.$.i c s @   o $ D <.X...$.:.6.",
"P T P G T O.&.r       < P _ L / ! ! ! } ! ! ! ! Q / D C C <       . 1 v ` [ / Y  . ._ | } } | | ] &...u b s o o   + D O...:.:.>.",
"F D D G P Q O.-.i       < L _ W } ..! ! ! W ! ! ! / P H K m <       . < M +.] ] ) )  . .| } ' ^ Q / $...u x k o     + C 6.:.>.:.",
"H G B D P H P O.<.y       < Q  .} ..! ! Q Q / _ ! Q G L J D C >         1 Y +.+. . .O... .| ^ ^ _ / } 6.$.s b k .     # Z >...;.",
"P P P G G H H J X.3.y       3 / ..! } ! / Q / / / ! G J D L Q Z <   .   . 6 Y O.O... . . . .' ^ _ } `  .8...u b a +     * E >...",
"_ / _ L J A L Q T X.<.w   o   6 K ../ / / / / ! Q Q Q Q L L J Q D >       O 8 Q $.{ ` ] ]  . ._ _ } ^ '  .3...i n k O     @ D <.",
"' _ Q Q D C L Q T W o.=.w       > K ` Q / ! Q / Q P Q ~ _ Q Q L P Z :     o o 8 P X.` ` ] O. .` ^ _ ^ ^ ' ' 6.:.d C x o     % J ",
"' _ Q L Q Q Q Q ^ ~ P X.<.i     o 3 P ` / / ! / ! Q P ~ ' _ Q L G P C <       . 6 G O.] `  . . .} ' ^ Q Q ' ..9.3.d D k +     @ ",
"/ ~ ~ Q Q ' _ Q ^ ~ P L X.=.i   o   < ! ] / / P ~ ) / ( / P J C G P P C <   .   . 5 P +.] O... .| } | ^ C Q O.>.9.&.i b k o     ",
"L L Q ' _ ^ _ Q W T L T H O.=.w       3 ( ` P / / [ ( P D m M J Q / Q ! D <       . 7 L +.X.O. .} |  . .K k P $.$.>.O.u s y o   ",
"J L ^ ' _ _ _ _ ^ ^ L L L H ] &.w       < P ) ~ / ] Y m x v G / ! Q P Q / G <         5 D +...X. .|  . ...Z l P ] _ >...w i s + ",
"Q Q ' _ ^ / ^ _ ' ^ Q P Q T P ` :.y   o   < P  .! Z v x c K P / / / ! ! _ _ L <       o < L $.%.$. . . .O.#.D m P / } 6. .y k d ",
"J  ._ ) _ _ _ ' ' ~ ~ P Q T G H ] $.y       3 H F f h x F ] ( / E ! ! ! ) ! / K 4   o   + < ~ &.#...O.....` ( D C P ` _ :.#.y x ",
": D  ./ ' ) ~ ) ^ ~ _ _ ~ P L G G / O.y   .   < a x f D ( O.( P H P ~ ~ ~ ( R ~ W 5   o   X 6 H #.O.#...] ( ~ _ L k C ^ } :...y ",
"  - P ) P ~ ~ ' ' ) / ( T G J D D C ) +.w       = d D P ` ( ) / P ~ / _ ~ / / ~ ' G <       . ; D :.O.O.] ) ) ` _ n C / _ / ;.| ",
"    = A / P ^ _ T ' ] ) ~ G A J D C m Q +.w       ; H ] / P _ _ ~ ~ P L P ~ ~ / ) ' G ,       o ; D &...{ ] ] ) _ ` ! ! Q ! ^ :.",
"X     - A / ~ ~ _ ) ] ` _ Q L G K J C b Q %.w       4 P ` ! _ ` / P P G G P T / ^ W ' G 5       + < D ] { X.) ) `  .` / Q ! ^ } ",
"t .     - B ) / ) / / / / ~ P Q G D C m Z ! +.w       5 P ] ' _ P P P G D G P ~ T L W ^ P 5       + < D ] ] { {  . . ._ } ! ^ ^ ",
"R t X     - G ] G A Q ~ ' ) / P K C m G G Z / O.w       < R O.Q Q P Q L G P P W L L L ~ X./ <       + 4 v R O.{ `  .` _ ^ } ^ Q ",
"I U p o     - m P b A / ] ' P J K D J L Q Q L / +.r       5 H ' P T ~ L G P L J S L ~ ' ' / A <   o   + < j { { ( ( _ ` | } ^ ! ",
"-.U U p o     & b Q P ] ) G D D Q / ! G G P L G ) +.i       < J / ~ ~ Q W L J L G ~  . .~ Q ~ A 4       + & M { ` _ `  . ._ ^ } ",
">.*.K U p .     & D { / H D Z Q / | ` E J Z J Z J ] :.y   o   : P ' Q Q L P P P ~ ' X.^ W ~ ^ ^ Q 5       X > n .. ...| _ _ ! ! ",
"` 3.4.K R t X     - B D c m J _ _ ! Q J J Q Q E L H X.3.y   o   < P ) Q P ~ ~ / ) ) ^ ~ ^ ~ ) W _ W <       O < m .. ._ _ _ } W ",
"] ] 9.7.U K w       % p m Z J ! | / ! E Q _ Q / _ Q W ] &.y o o   < G ] P ~ ' X.) ~ ~ ~ ^ ~ ^ ~ W Q C :   .   + 1 m ( ! E Q ! ! ",
" .] O.9.7.K F r       % f J K Q ` _ _ / _  ._ / Q P J A ' $.y   o   < L ) / ] ` ' ~ ~ T ^ ~ ~ W E E E C <       + 1 x K E ! ^ ! ",
" . .....6.3.J F e       % l / P / _ _ _ ] ..} ^ L J L L E ..O.y       < Q X./ T ) ) ~ ~ ^ W W ^ Q E S J C :   o   + < x ! ! ! ! ",
" .'  ._ ~ =.&.H m t   .   ; Z ( ! |  . ...} ! _ Q E Q _ } J / $.y   o   5 ( ] ~ ~ ) ^ ~ Q Q W ^ ~ E S J J C : o     + 4 b ` P ! ",
"} ~ ^ Q ~ / =.&.v F i O     : Z ..| .... . ./ ! / } _ ^ W E C _ #.y o o   < ~ ] ~ ^ ^ ~ ^ ^ ^ W W S C S C D b >       @ 3 k _ ! ",
"' } ' ^ ) ` X.+.B v ! i o o o > ! :...` }  .! _ | | ^ W C C E J  .6.y       5 P ~ ~ ' ' ^ _ ^ W E S E S S C D m ;       @ < l Q "
};
