/* XPM */
static char *_579300946081[] = {
/* columns rows colors chars-per-pixel */
"64 64 87 1 ",
"  c #01212B",
". c #01232F",
"X c #012330",
"o c #022533",
"O c #022534",
"+ c #022634",
"@ c #022737",
"# c #022739",
"$ c #02283A",
"% c #03293D",
"& c #022A3D",
"* c #032A3D",
"= c #032B3F",
"- c #032B41",
"; c #032C41",
": c #032C44",
"> c #032D44",
", c #032D45",
"< c #032E46",
"1 c #032F48",
"2 c #042F4A",
"3 c #04304A",
"4 c #04304B",
"5 c #04314C",
"6 c #04324E",
"7 c #08324C",
"8 c #043250",
"9 c #043351",
"0 c #043453",
"q c #053454",
"w c #043455",
"e c #063657",
"r c #0B3752",
"t c #0E3751",
"y c #053658",
"u c #05375B",
"i c #05375C",
"p c #05385C",
"a c #06385C",
"s c #05395F",
"d c #073A5F",
"f c #143F5B",
"g c #053960",
"h c #063960",
"j c #053A60",
"k c #063B62",
"l c #063B63",
"z c #063B65",
"x c #063C66",
"c c #063C67",
"v c #063E6A",
"b c #073F6C",
"n c #063F6D",
"m c #073F6D",
"M c #07406D",
"N c #07406E",
"B c #07416F",
"V c #074170",
"C c #074273",
"Z c #074374",
"A c #074477",
"S c #074478",
"D c #074578",
"F c #084478",
"G c #08457B",
"H c #08467C",
"J c #08467D",
"K c #08487F",
"L c #084880",
"P c #084983",
"I c #084A83",
"U c #084A85",
"Y c #094B87",
"T c #094C88",
"R c #094C89",
"E c #094C8A",
"W c #094D8A",
"Q c #094D8C",
"! c #094F8E",
"~ c #0A4F8F",
"^ c #094F90",
"/ c #0A4F90",
"( c #0A5092",
") c #0A5397",
"_ c #0A5398",
"` c #0A5499",
"' c #0A559C",
/* pixels */
"%$$@oo.....Xo@X@@@@@@@@oooooo@o@ooo@oooooo@%%%%%%%;;;;;;-;;,,220",
"%$@@ooo.....XoX@@$$@@@@@oooooo@oo.oo@ooo@#$%;;-;;,-,,-,--,,,5505",
"$$@oo.o.o.ooX.@@$$$@$#$$@@ooo@@o...ooo@@$$%-,,,;,,,2,,-,-,255w5w",
"$$$@ooooooo@#@@@$$$$#$%$#@@@@@@oo  .o@@@#%%,122252522,;;,550wwww",
"$$$$@@$@@oX@##@#$%$$$%-;%$$$@$$@o ..@##%%%-,250255502,,,259wweyy",
"$$%%$@$$@@#o####$$$@$%-;%%$$$$@o...o@@-%%,,205w8w05042,2295eiyyi",
"%%;-%%%%@@o##@@#$$$$$$-%%%%%$$$$oo@@%;---,222www0www522295yejaiy",
"%;;,,,,;##@o#$$$-%$%%%%%%%%%%%%$@@$%;,,,:2225www0www5552599ijiw9",
"--<2,552:*$@$#$$-%---%-;-%%%%%%*%%;;,122259150ww0iww055529wyiw95",
"<:<205004<%%$*$:-,-;,;%--%%-%%---,1355959995208w0ww5222,158w9892",
"-:555w0ee54<=%*:,-,:,;---***%-<:25ee9y9ww999020wwe0052,;:2990212",
"<20iiijjay04<<:<2,22,;,--*--:<<22yyyiiyy8992522000552,--:,2921::",
"55iizccjjji955555222<<<-**-:2225yygpgp9529951,552w822;-;-,252:::",
"0whzvBvBBvjyeeyyww0552:<-#*-225wigggii952:,,12220w502,-%,,,,:-,,",
"wwizvvmmVVvzjyiihww0522<-%@*<20iiggiye5,-%-,25050052,,-%-;,,,-,0",
"0wyzzcvVVZVvczjahjiw5052<*#%:20igpgiy05,-%%,2w052522,,;-,,---:22",
"0ewyiacmBZZmnmzzjzjyy9552<-*:2wyhjjj5011--:55w9922,,,,252,:1:222",
"5wywwyjvBBVVZVmvccczyeee502220wiyiiiew03225ww01-:,-,,59999512000",
"we0w00yzvBmBBZVmvvvvzzyiiyw0505wiiiijyyywwyyw5,-;-,,59weww9920ww",
"w0505wwijcmBmZmnBBVZmvvzzzyy5505wiizzzzgiiyy051,,,229ipigiiywiiy",
"05520wiiacjvVmmvmZZZmvvvzjiw2<05yjajzmmnzajjww550508izvvmmzjzzij",
"205220ihpcczvvvvmmZVBmvxzj0:-:5wiijjmVnVmvvzjiew50wwjzZJJGVmvzvm",
"002020iijagxzzjzzzBZBBvzhy2--:5eijjcVVVVVVVvzayw05wizVGE/YIGZZVm",
"iy050eyweycxxxieipgvnvvzhi2%*20wijVVVDDZDZVvzjy925wjznR~//~RYDVv",
"jzyweeye9wzzcziy0eyzgzzjji9--0wjjzVDGGIGIJBVmcy950yazBI/!((!WIVm",
"mmviaiyy9wyjzagyeeyznnvcziy155jzzvVYRRE/~EKZBBzjiiyizmJU!^((WIDV",
"GGZmvzcyiyiaiyiyyecvmZZVzjyyeecmVZGRE~/_)EJZZZZVmcjcVDJY!!/(/YIA",
"RRYLDZmBvccjy9y910gmZSSVmzziyavZZFR~!~/)(EUUJIUIJAVDUU!)////WUJI",
"///~EIKDDDVcay955yzvVDSZZVmcjzmmZFY/!~!~/~~WR~/~EIIIW/__/~~YUJKJ",
"//((/~EEERJVzawyeyznVSDZVZSVvmVVmVGR!!WW~RYYRR~RIIJIU!_'_~RYJJJD",
"E~/_)(())~DDVzjyyigmVDSVmDDSVmZBmmDILYUURYJSDDSZVDJIU~''_)~YIDVV",
"YR/__``')EJZcjiiy59avVZnmJGGBBmmmZJLJJDDIJVmvzzzvmDDI~__)(/RUJVB",
"JKE)))))~IDmzyw01;,5imVmmmBVvzvVSVJYUDZZZVmzewyhzvnZJU////EEYAAv",
"ZAJE/~EYJSVva052%@#%9izmvzgzjzzvZZJ^UDZmmiyi512wizzvVZDLUEYIJKVB",
"vmZIYKJDVmvii52;$@ o,wijxgaiyjjvVSJLSSmmiw5w0022wijizzmmDJDVmVBv",
"jcVZDZAVZVvji95,%@.X#19iacvzzzavVZmmvmviiw55022220522wjzvvviaapy",
"ccvBBBvBZVvia055,%#@%1wijmVZZviazzjeyzzzzw50055<,-##$,yjziy9999w",
"jcvvvvvBmvzjiww52,;%,1wjBZDZSVziiy07rimmVzy0052-%#@#$;9izyw51215",
"pkcvvvvcczzjjiiwe52,3yivSJSZZZvgiy5tfavBZVmiw52-@.@#,5eijiw5,,;,",
"kjcccczzayiiywwwww50yzzmZSZZSZmzayyyazvmZGZmji05#@@-50ejjzi99,,2",
"kccclaji05050550ew59ivVVDZVVZVmzzjzznnVVJLJZvjy5,-%2yyaazziy9559",
"jccllaee02:222229599yzBSDDmmmZZmmvvvZZZZSJJJVvzy045eajczvmnzjyii",
"kjclziy95,,,,,,259wyigzVDZvmnVmZVmmmZZVVSDZJABBpewyccvvmmmVmmvmz",
"jjlljyw55,1,,-2229yyiazmBvvjvmmZZmVmmmzvnmZZABBvzjjcvmBmZZZmnZVm",
"jzjziw9522,,<-:220yypgzcmzzzmVVmmZVmvayygmZmmmvvjjzzzvmZZDJVZZZZ",
"czzai951,1522::255iyyijjjjizBVVmmvvcjew5yvVmvzccaijjjzvBZJJJDSZZ",
"aaziiw02,,252:2002ywywyey9eizvmvxvzjy55yivmvzvjzjyyizzjvmDSJSSZm",
"jjzijy0522222520w0050511215yiiizgaay9129yyzzpayijywwiyizvmVVVmZn",
"ajzjii02<22058w85951:<---,10wwiigpiy0,,25eiywwww002000wiiczzzzvv",
"jjziy052:2050880w991--%%%-:2190wiiw552-,;25052000252252wwihjjzzz",
"iyiyiw05025000wwy992--%%%%-,295eiiw5,,-;%,222250225225880eyyiiaj",
"yeiiiyw52:502w029552:-::%%-21590wwe52,,-%%:22520w00502wwew0eewii",
"wyyiyw02:<:0002015511,,,%%%;,25599w951-%%#;,220w0020208eyywywwe0",
"wyiie02<<-222088y99944,%%#$$%;,4595w92,-%%;,<250020052wwiyyww055",
"eyyy0522:-:250wwwwe52,;%$@oo@$,4229w5222,-,,22552205202weyiy205,",
"5ww022222<<:22889y954;;$#@ooo$%,255w9222551522500022200wwwyww02-",
"500052252:<<:2225591;-%$@@o@o$%;,99992225552255005202250weew80:-",
"055542522---<:<-,33,;%%;#@@@@$%,:12555922502245005252255w0www22:",
"2252552<--*-<---;,,;-%%%$$%$@@%;,2990212<2222225222:22225w5w02:<",
"25222<--**%---%*;%;;%-%%%%%%$@%;-,152222:<<<<<2222<-<<222008222-",
"22<:<----*%*%#*#=%===;%$%---$$%=-;2222:,:::*-<<22<--::<<220552:-",
"-:<:-<-*%*%###$$%$%$$%$%%%;-%%%;--;,:-,-:-*:%**<<-<--::2222022--",
"-::-*--*--**#@$#@$$@@$$%%%--;%%%%-%;-,-;----%%---------<22525:<*",
"----:--<--*#@@@o@@@@$$$$$$%%%%%%%%---;--*%*%*#*-----%--::<<2<<-%"
};
