/* XPM */
static char *_579300954012[] = {
/* columns rows colors chars-per-pixel */
"64 64 57 1 ",
"  c #1E473E",
". c #1E493F",
"X c #21463E",
"o c #20483F",
"O c #0E454C",
"+ c #164746",
"@ c #1C4743",
"# c #174946",
"$ c #1C4B45",
"% c #12474C",
"& c #194649",
"* c #154C4D",
"= c #1A4D4A",
"- c #16524E",
"; c #1A524D",
": c #0E4750",
"> c #0D4C54",
", c #114751",
"< c #134D52",
"1 c #184F52",
"2 c #124F58",
"3 c #0E5157",
"4 c #0F5359",
"5 c #0F595E",
"6 c #155354",
"7 c #195552",
"8 c #165A55",
"9 c #195A55",
"0 c #13555A",
"q c #1A5758",
"w c #145C5B",
"e c #195D5A",
"r c #204A41",
"t c #15615E",
"y c #19615D",
"u c #0E5D63",
"i c #135D61",
"p c #185F63",
"a c #0F6365",
"s c #0F6866",
"d c #0F656A",
"f c #0F696B",
"g c #136364",
"h c #196563",
"j c #146966",
"k c #196866",
"l c #126569",
"z c #196769",
"x c #146B6C",
"c c #196C6C",
"v c #17706E",
"b c #18716F",
"n c #0E6B70",
"m c #146F70",
"M c #186D70",
"N c #157273",
"B c #197171",
/* pixels */
";;=#%**%&&*=&&%&+++&$#%%&%%%#&..X.. ...Xr @@&===*==$$$$.;;;;;;;=",
"$;;-==*=1===*=<&=#&&#+%**O%%#$$.X.XrX...r@@+&&======.$$;;;;;;;==",
"$$;;;1===&==&*&*=&&&*%,%%O%*#$rr X.roor.rrr&;==*=#&$$$$.$;;;;7**",
"$$$$;;7;==&=1&%*%*1&%*<%OOO&$$$rXXrrroo$$r&==;;$=$$$.$$$;;;;7;**",
"$;$;$;;;;===****1%,,<<,%::,*&$rrrrrrr$r@$$==1;;;$$.-..$;=;7;;;*1",
";$r;r;;;77;;=*&=&%1<,><::*%*#=rorrrr$$$$=;;7=;;r$$.-.-$$=;77;==*",
";;;r;;;==77;;=*1&1,<<<>::<*&;$ro$o@$&*=;$==-6;;;$.#...;-;;777-1=",
"$;;;;;=;*67;777*<<<,22,><,<=;$$r$$$$=*7******=;;$$;.-;;.;;77;=17",
"117=*-67767777q11<<12,,<<*=;;$$$$=$=17***#*=*;;;;$r;$$$;;797;-;;",
"766676678677777761<,212*<*=;;;=$=$=;;1****=*-77;$r;$;$;;;779;--7",
"00000080806777q6q661<,<<**;;;$$;==;71=1&=--*677*;;;$$;$;;;997777",
"pppwwe0w666667666000<*<61;;;;$;$=$777=;=;*67676-;;;.;;;;;988877-",
"0wwww866661666<60w0086--67;;*==$=;7;7*=7;77067<67;;;;;;;-78ww097",
"w6404806666671200w06888977;;;=;;;-776;=7777766667q;;;;9;6778eee8",
"854w046666630202wp686-----==;;77;9977q7q7;;---760989;---6-778eyy",
"w8560606366600004p07---;;-;;=-779--67q77;;;;--68009999-777778788",
"tww88006660004404pw7-7;;9;;;79766<666q97;;;;-766yyee9-77-8879977",
"ttwwwwww8ww450444w07779;;;9;997660000q97;9;;-78wytyw8-7989878988",
"gtgtgggtyygw0w0488w8;9;9777qeq70000060969;;99-8tyyye979997899999",
"tggghhgtttggi4i048we97;9777e9q00323336e8;99998ttwwyy97999y9yt98t",
"wpggggwwtwtgg5w0w8eyy-9-88ey60p0333440pw99;9-ytwwwwh999e988988y8",
"wehhhgtt5t5th50ww08yyyyyeyyeww004444w5we9999wytw50why099yy8y9yyy",
"wwpggggtw5igggw0w68wwwtwtwww48wwiiii5wtyy899yh5iw45ghw9yyyy88y8y",
"weggllgwwgilzguwwwww8w5ww5w8wwwwiiiu5t8tyyythgw55wiiheeyyyyyyt8y",
"wttglalggaaxxagwwwtww5iuiuwwyhhhi0wiiipihggghgiwiiiijtwt8yttyyyy",
"htggxfxldllxxagwwwtwigaguwwthytghpiggiiijtghzgipiuigjttwyytttyyy",
"ygggNvxxxmxmxxgwwwigigiiiggghtytwghhgigcjggjzgigggulclwtttytytky",
"ttjxxxffxfxxxgaiggialilglggctthyyyygccchgtgxcgiiiigxMjggtttttsyy",
"gjcclgaaaalldigggggliggaudxjttyyyttttgttttavMlggggxMvfjjjccxjjts",
"gcxaagglgdplullglglgldallMxstgktktttgttgtgxvMlddlxNmfvxbBcxxvvvj",
"NNggxxlllnlllldlxgxxaxxbMxggggggjsgjjggjsjNNxxfxNNNfffNNcxgsssjb",
"NxdlxfxlllnllllllllgdNxsagjgjjccvvbxxxjjbbBvxxfmNNvffxNMxgjjjtsv",
"lnnllnlnddmlxlxsgjssvNsshjjxMMxxjxlMMNBBbxjjjgxxNNnnfmNNflljxlll",
"lllnldiuddlldaasajjvNsttyygxNxlaaadgllxxgstttgffnNmNmfNndggxllgl",
"lllllluddlllaasvbxvckttttgjcbsgggalllggggtggggadnNnmmmNvxgglgaaj",
"dllddlllllgglxvvjgtttttttghjxxagglglggglgtwitsafnnNmxfNvgadggasx",
"ddllldllialljttyttttyttttt5ggcjtigigiggggwagggdxmmvxxxbbxgaalaxx",
"ddulugliggchttytytyyyyytwt5ttgkgwgwtigjggwigllxxvfxjsjjbxfxxxxmx",
"uulluaagkkywyyyyyyyyyytw8tttwtwhtwwwwtkkggggljgjgtttjtjjxxxxxxxx",
"uuuuggghgtw99y9yyyyyyyyywtwwgwwgg5wwwthgwwpgzlggttwtttttkxxxfvxf",
"llplzlhwy88898889yyy888yyw9eww5gg5wwwwwww0ughte988yy8ttyjjcxxxjj",
"lpppipwe9y89888y8999999y99ewwwpiwwww8www5wiggw898y-9989ttjjxxxxj",
"2i200889989yjtyt89y9999988086wpp05484wwwi4ugt8q998897898yjjjjxxg",
"pppqe9999yyytytty8-899997990wtw00w648wipiiigy9q9-9-9999yyytgggll",
"y999789yyy90844wye888-899tee84606w868tgpgiggew99t8889yyyywetpuil",
"99;99-;yy8888878wtew9y99989868666676wwetwpwgheeey8yyep990880wwii",
"999977yy8686866478888888;76664666677yw0ttwwwwweey8999997990000u4",
"999;9y977870666686-36-9-6q7666366-67988ww0086666-79-6q77960002ii",
";977e9868676666666666661626060666---9e888366-666766676668600ww00",
"9779w666676667676-*606162612<6<666-676866-<633<66670667666600000",
"779e46w6697766<611<6166<6<,6>6-<>66-6--6--<66666200066678600w600",
"7qqq66066666*-6*7*-6<*16<6*<<-3>><*1-63-<6-6636261>16*6667066006",
"99636666666-66<6*71**6-**61*6*<**<**66*<-<<<66<62<2<66-666666066",
"w663036666*<1*1=1=<<**=;6-116*<:>>*>**<**<<-<<<<<*<6<667*66<6666",
"0626666666*66*<**<1**--;77776<<><<><*>-***-*-<11<-6777876-61<626",
"2222>2<<1666*<-<<*<**-;--666*6<<<*666***#***<,*1<76;7--;-976q666",
"2><<,2<<166<**<*,<<1------1-66661*q111=**=***<&=;;;;;;;;;797999-",
"2<220261<<*<<**<***6----*-*-*-****&====#*&*<**<=;;==$$$$;$.;;;7-",
"<12>226221*11*,**16--;*--**=#$###$====&=***<,**==;==;=$;.;.;$;;;",
"<<<22<2:<<1******=1-#-==-*=*$$$.@@$$===&*%**<,*&$;=$=$$$;..;;$$$",
"<<2<<><<1&*=**&*#--*---#**$$...$X@@@$=$&&*,,,<*&=;$=$;r;;.;..;;$",
"2,><2><:,***=*#+#-==###-*-;##....Xr@@$&&**,,,,,%#=$&$$$$..o;;.;$",
"022,>*****=**$&###==#=-**-#=#. .X@@ $$&+%%O%%%%**==#$$;.;or;;$$$",
"022,:<%**=*##&#$$$$===#*###$#. ..X .&&@$&%OO%,%*+*=#$;r;roo;r$;$"
};
