/* XPM */
static char *_579200444403[] = {
/* columns rows colors chars-per-pixel */
"64 64 141 2 ",
"   c #010204",
".  c #03060B",
"X  c #06090D",
"o  c #0A0B0D",
"O  c #030710",
"+  c #050C13",
"@  c #0A0D13",
"#  c #070E18",
"$  c #0A0F19",
"%  c #0D1116",
"&  c #0D131B",
"*  c #0F181F",
"=  c #111316",
"-  c #12151B",
";  c #15191E",
":  c #191A1D",
">  c #0E1621",
",  c #0F1924",
"<  c #0F1B29",
"1  c #121721",
"2  c #131B24",
"3  c #191E24",
"4  c #151E29",
"5  c #191F29",
"6  c #201E21",
"7  c #172026",
"8  c #1C2126",
"9  c #16212C",
"0  c #1A222C",
"q  c #1D2630",
"w  c #1F2933",
"e  c #212227",
"r  c #21252C",
"t  c #25292E",
"y  c #2A2A2F",
"u  c #212631",
"i  c #242B33",
"p  c #2B2D34",
"a  c #262F39",
"s  c #292F39",
"d  c #302F34",
"f  c #2C3036",
"g  c #27313B",
"h  c #2B333C",
"j  c #2F383F",
"k  c #313135",
"l  c #32353C",
"z  c #34393E",
"x  c #393A3E",
"c  c #2D3741",
"v  c #2E3942",
"b  c #323740",
"n  c #333B44",
"m  c #3A3D44",
"M  c #343F49",
"N  c #3B3F48",
"B  c #374047",
"V  c #3D4145",
"C  c #36424B",
"Z  c #3A434C",
"A  c #374550",
"S  c #3B4651",
"D  c #3D4953",
"F  c #414246",
"G  c #42464B",
"H  c #46494C",
"J  c #494A4D",
"K  c #404751",
"L  c #424B54",
"P  c #4A4E54",
"I  c #464E58",
"U  c #4B4F58",
"Y  c #4E5255",
"T  c #47515A",
"R  c #4B535C",
"E  c #4F585F",
"W  c #515254",
"Q  c #53565B",
"!  c #53585C",
"~  c #5A5B5D",
"^  c #4E5761",
"/  c #4F5963",
"(  c #545A63",
")  c #5A5E63",
"_  c #575F69",
"`  c #5D6164",
"'  c #5D636A",
"]  c #5F6670",
"[  c #626266",
"{  c #626669",
"}  c #696C6F",
"|  c #6A6D73",
" . c #6E7174",
".. c #6E737D",
"X. c #727475",
"o. c #747679",
"O. c #75787A",
"+. c #797A7A",
"@. c #767981",
"#. c #7B7E83",
"$. c #7D8184",
"%. c #7D848B",
"&. c #848283",
"*. c #888687",
"=. c #838689",
"-. c #84888B",
";. c #8B8E92",
":. c #918F92",
">. c #8D939A",
",. c #939294",
"<. c #959699",
"1. c #97989A",
"2. c #9A9A9E",
"3. c #979CA2",
"4. c #9A9EA5",
"5. c #9B9FA8",
"6. c #9CA1A7",
"7. c #9CA1AA",
"8. c #A0A5AB",
"9. c #A2A9AF",
"0. c #A4AAB2",
"q. c #A8AFB7",
"w. c #ADB1B6",
"e. c #AEB5BC",
"r. c #B1B2B6",
"t. c #B2B7BC",
"y. c #B3B9BF",
"u. c #B4BAC1",
"i. c #B8BDC3",
"p. c #BBC2C9",
"a. c #C1C2C6",
"s. c #CFD3D4",
"d. c #D1D5D7",
"f. c #D4D6D9",
"g. c #D5D9DA",
"h. c #DEE0DF",
"j. c #DDE1E1",
"k. c #E3E5E5",
"l. c #E4E8E9",
"z. c #E9EAEC",
"x. c #F1F3F6",
/* pixels */
"= = @ % - ; ; - - % % % % % o & : : ; : - @ @ @ @ o : : : : = % o @ @ @ @ o o o + @ X @ X X X o X o @ = = % % ; - - : - % % % & ",
"t i i p f p ; r e t r y t y t 8 0 3 3 f i p r p t t 8 r ; t p t p p t i e r 3 3 f p f t p r i e e 6 t r t r t r r 3 i f i y i t ",
"p f h N C B j g f y t 8 t i v C C b M Z n n p a q p f f t p u 8 u p g p t i 8 0 s u a w f i r 5 5 2 p t 8 i p p p z B C B h l p ",
"3 b C L L Z C i q 8 8 - h C Z ( R D L D K D Z Z C Z C v n g c Z Z C C h z p M Z Z M a c f g b n b h N h & 8 3 t i C Z D L B j 3 ",
"7 M D Z A C B w 0 5 8 0 C Z n D D D D T C C B A C C v v c c g C C v v v c h c S C v v v v c c v c a A M q 5 8 0 w n C A Z D B 8 ",
"3 n S M v C v w u r 3 s Z M M D D A D D C A A C C C v g g a a S A M c a g a c S A v g g g w g g c a M S s 5 0 u i v C v C A M 2 ",
"1 j M C v C v w 0 0 1 h A v v D D A D D S S D A A A v v c c g L D M c c c g b I A C c v v g g v c w v A l 2 0 0 w v C M C B h 2 ",
"4 n D S D Z C w i i 4 M M A v A D D L T L L E D R I v h g g a ^ ^ A c g c a v / D C g c g w c v c w A v n 5 i i i M C D S K n 4 ",
"; v D A C C g a t q 7 D S A v C S Z D D S I I D T S v j g j j T I N v c h g v T D B h g g g g v v g A A D 7 7 w t g A B C A B * ",
"* j B D B v j w f 0 q C B v j B Z I Y E L I T I T D B j v v g T I S v c j h B E D C v v j g h h v g v B Z t 7 f i j j B A B j * ",
"7 v D A A A j w 7 7 g B B C h Z B j z l h g z Z V V B i i t a H G C b i a r h D C v i a i t g g g g A B B j 7 7 w j B S S S v 7 ",
"; B D A A C B h y & B S v Z M D Z Y 8 + - = * * , ; ; * & & * * 1 1 1 & & & * > ; ; & # r g g h B g D v D j * i h B A A S D n 7 ",
"; j B A A g v g i 2 B n j v h B Z Y 2 7 q 9 9 9 9 9 9 q 0 q 0 9 0 0 0 q 9 q 9 q q 9 9 , g B g j g v B g j B 7 i g v g C S B h ; ",
"; B C A A j B j 0 8 C w j C h B J j $ 9 < 9 < < < 7 < < < < < < , < < < < , , , < < , & q B h g g g C v w Z 7 8 j B v A A C n ; ",
"; B D A A v B j 8 q T i j L h B E t , 9 9 9 < , < 9 7 9 9 9 < < 9 9 < 9 9 9 < < 9 7 < , ; z g a g g A v w T w 7 v B B A A A B ; ",
"; z B D S A j a * p D 9 g n n D B 7 9 9 9 9 < 9 9 9 , , 9 9 2 < 9 9 < , 9 q < , 9 < < 0 & g h g v v C g 7 D i * g g A D D B v 7 ",
"; n B 2 0 7 0 j 7 z n 7 j C a h z z 4 0 q 9 9 9 9 9 9 < q 9 9 9 9 9 < 9 9 9 9 9 9 , < 0 4 N s a v B C g 7 n j 7 j 0 2 0 7 B j ; ",
"7 j B . 2 # q n ; Z V 2 h A 0 0 Y L 5 4 4 9 9 < 9 9 9 9 9 9 < 9 9 9 9 9 9 9 4 4 9 9 9 > ^ _ a s v g A g 2 V Z ; n r # ; . B z 1 ",
"; j V X * ; 7 f 3 C j * g S 0 9 I ( a 2 9 4 , 9 2 9 9 9 < 9 < 9 9 9 9 9 < 9 , 9 9 9 4 4 / c a M j j A g ; h Z 3 h 7 ; * . m z 1 ",
"; v x . > 9 & 7 w V a 2 h Z 0 4 Z ( M 1 q < 4 , , 9 9 9 < < 9 9 9 9 , 9 7 < 4 2 9 2 2 w _ n u 1 v j C j ; i C u 7 % 7 , . N b 1 ",
"; l b O 4 0 ; * a D t > h B 9 9 a R G 4 4 9 9 2 < 9 9 7 9 0 9 9 9 9 9 9 9 q 4 2 4 9 > Z ^ c q O + 0 V h & i G g & ; 0 2 O b z 1 ",
"; z n + 1 0 5 1 n C 8 2 j n 0 1 4 K U r 9 , 0 9 7 9 q 9 9 2 9 9 9 9 9 < 4 2 4 9 9 q 2 ^ M c 9 2   + n j 2 8 C j 2 0 0 2 + b z 3 ",
": x z + 2 2 3 4 C n 0 ; h C p * 2 M Y a 2 1 9 4 9 9 9 9 7 2 7 9 9 9 9 9 4 2 9 9 1 4 q S c i 4 4   p V h 7 9 n B 2 9 2 2 + z z 3 ",
"3 n z @ 1 0 5 8 C v 8 2 z n a > 4 a T C 7 4 4 0 9 9 7 9 2 2 9 9 7 7 4 9 2 2 4 4 2 4 b K s q q 4   x V j ; 8 v C 0 8 0 > + z n 3 ",
"; n z @ 3 7 1 i C a 0 ; h M i > 5 q Z I 0 9 4 9 9 4 2 4 < 9 9 9 4 4 9 2 2 4 0 1 4 > I S u q 0 4   z n h 1 0 p C y 3 0 4 # b n ; ",
"; x j # 4 0 4 z n s 0 3 v b s 2 0 4 n ^ h 2 5 0 0 9 9 0 < 9 9 9 9 9 9 0 2 4 9 2 4 q @.i q 4 0 4   N N l 3 r g M z ; 8 4 @ h B 2 ",
"; h h % 4 0 1 z h u u 4 a M a 4 0 4 s ^ n 1 0 4 9 9 9 7 9 9 9 9 9 9 0 4 9 0 9 7 > N U 5 0 0 9 4 . z N a 3 u q g j 2 0 4 % f h ; ",
"; f i % 1 7 0 V i - r - a v a 4 0 5 q K G 3 0 4 9 9 9 9 q 9 9 q 0 9 9 9 0 9 9 4 4 L s q 4 4 9 0 X z n i - r 1 i B 8 7 > # a h - ",
"& l h & 8 2 0 n p # e ; g n h 4 9 4 1 n U i 4 0 9 9 9 9 9 9 9 < 9 9 9 9 9 9 9 9 5 R s q 4 4 4 2 X F m i ; 8 @ p b 0 4 3 & g l - ",
"& f h & 0 * 0 h a @ ; ; i n a 4 9 0 < i P n 4 0 9 9 9 9 9 < 9 < < 9 9 9 9 9 9 & S ' 5 q 2 4 5 > o m n u ; ; $ a h 0 ; 0 & f g - ",
"% p g & 3 ; g h i & % - r n w , < q < q N N 4 4 9 2 < < 9 < 9 9 < < , < 9 4 0 , ] Z q 5 4 q 5 4 @ m n r - % - i v g > 1 & f p $ ",
"& f i * 3 & g h q 4 @ - u n a 2 9 9 4 5 n V u 4 9 9 9 9 < 9 q 9 9 9 q 9 9 9 4 w K u q 4 4 4 5 3 @ G n i - o 4 q h a * 3 1 i s - ",
"% a i 1 3 * g g 9 9 % & i v h 9 9 9 q 2 a N s 2 0 q 9 < 1 0 9 9 9 9 9 9 q 9 2 n U u 5 5 0 9 5 2 @ F b u - % 5 9 h h - 1 1 a p & ",
"% r u 1 % 8 h a 4 0 2 % 0 h g , 4 4 4 < 5 N n 2 9 < 9 9 9 4 9 9 9 < 9 0 9 9 > ^ K 5 5 5 9 9 < 2 @ F l u $ 2 5 9 a c 4 * 1 u u % ",
"& i r - % 0 g a 4 0 3 % q c a , q 4 5 2 5 c m 0 4 4 < 9 q 9 9 9 9 4 9 9 0 4 q ..p 5 4 9 9 9 9 2 = F b q & 5 4 4 a g 5 % - r i & ",
"- u 8 * % r g w 4 0 4 * 0 v g > 4 5 5 1 4 u n t 4 0 9 < 9 9 9 9 2 < 9 9 9 2 b N q 9 9 9 9 q 4 5 = G b 5 & 4 0 4 q a r % - 0 r & ",
"$ r t = - u g 0 4 4 5 $ 5 c a 2 4 5 4 2 5 0 b g 4 4 4 4 4 4 4 9 4 4 9 4 9 1 I z i 0 0 9 0 4 5 5 = m l 2 $ 5 5 4 q g i - & r e % ",
"$ r r - * u g 0 4 4 0 - q h a > 4 q 4 4 0 4 g b 5 q 9 9 4 4 q 4 4 9 9 9 9 0 _ s q 5 9 9 4 2 q 2 = m b u & 5 5 4 9 a i % ; 0 t % ",
"% t r $ 1 s a 4 9 5 5 & 0 b a 4 q 0 5 4 4 4 u c u 4 q 4 q 4 9 9 4 9 4 9 2 Z | 0 q 4 9 0 4 4 5 2 = G l 5 & 5 5 4 2 a a 1 % r t % ",
"$ e u $ 5 g r 2 9 4 3 $ 4 c a > 9 0 5 4 4 4 q c u 4 9 9 9 9 9 9 9 2 4 0 1 [ L 0 q 4 9 9 4 0 9 5 = F l 5 & 2 4 q 4 u f 0 % r 8 % ",
"% t i $ 3 h 0 4 q 4 4 $ 5 h a > 9 9 4 5 4 4 4 a a 4 9 4 0 9 9 9 9 9 9 4 i ( r i 9 9 9 9 9 9 9 4 - F b q $ 4 9 9 2 q s 5 $ u u % ",
"= u 8 % t s 0 4 0 4 5 1 0 b a 2 9 9 4 4 4 4 < 0 s q 4 4 9 4 9 9 9 4 9 4 d U i 6 9 q 9 9 9 0 0 5 = G b q 1 4 0 0 2 q s u $ e u & ",
"$ r 3 - i a 5 5 9 0 5 & 0 c h 2 9 9 9 < 4 4 5 0 c u 4 4 9 4 4 < 4 4 0 2 K U u 5 9 9 9 9 < 0 0 5 - F b 5 & 4 q 4 0 4 a a 1 3 t % ",
"= f 3 ; i s 4 5 9 5 5 $ i c s 4 < q 9 9 4 5 4 4 s s 2 4 4 4 9 9 > 4 9 4 ..b a < 9 9 < 9 < q 0 4 1 F b i & 5 4 0 4 4 a i 1 3 p $ ",
"- d - q s a 2 9 4 9 5 1 q b i 2 q 9 4 5 5 4 2 4 u c 4 5 9 < 9 9 4 4 2 N _ u u < 9 < < 9 9 < 4 2 3 F b u - 5 5 4 9 4 i g e - p = ",
"& 6 - i c q 9 9 9 0 5 $ 0 c a 4 4 4 0 4 5 4 2 4 q c u 4 q 9 9 9 4 q 1 _ L s 0 9 < 9 9 9 < 9 4 q : F N 6 $ 4 0 4 9 4 w h i = r % ",
"= y $ u c q 9 0 9 0 9 % u n a 4 0 4 9 4 4 < 4 5 2 c c 1 9 9 9 9 9 4 5 @.b s 4 9 < 9 9 9 4 q 0 6 6 m b i & 5 0 9 9 9 q h t % y = ",
"- 6 & a c q 4 9 9 7 9 * u n s 4 4 4 q 4 5 2 4 4 1 u b u 0 9 5 q q 2 N | d i 4 9 9 9 9 9 9 4 < 5 6 N n u - 0 4 9 4 4 q g g ; e - ",
"- - 3 l g 9 4 4 9 4 5 - 5 b s 4 0 9 9 9 9 9 9 9 2 0 h y s p s s l t ~ F z 0 2 7 9 9 < 9 9 7 7 7 3 F m 3 & 8 4 0 4 2 9 g h 3 - - ",
"= % 5 s i > 4 9 0 4 5 - u b a 4 9 9 0 9 9 0 9 9 9 0 h p p p k k k p F m p 0 9 9 9 9 9 9 < < 7 0 6 m z r & 3 4 9 9 4 , w h 3 = = ",
"= $ u h w 4 4 4 9 4 4 $ 0 b a 4 q 9 9 9 9 9 9 9 7 8 k f s s l d s d l x a 2 9 7 0 9 < 9 7 2 9 q 8 F m 8 & 4 9 9 4 2 9 w h r % = ",
"= = u h w 0 0 4 9 0 2 $ 8 n h 4 2 9 9 9 9 9 9 9 4 r h z l d b l b l d l p 5 9 9 9 7 7 0 7 < 9 0 8 H n 0 % 1 0 0 9 9 0 w h t = - ",
"= - i h 4 * 4 4 4 5 0 % 0 z a , 4 1 9 , 4 4 4 0 3 f m l p k m m m k k l z y 8 q 9 q 9 q 0 0 0 w e J x 3 % 0 0 4 9 7 * 7 h i - = ",
"- 1 a a r 0 8 9 3 4 3 - 8 l g 0 8 8 1 2 4 2 4 1 8 z m b d l b m x k d d z h & # & + # + % + + % % k x 3 * 3 1 4 7 8 8 t f i ; = ",
"= 3 r 5.x.l.k.j.f.f.r.- 8 d a.z.h.h.h.g.f.s.d.f.o.t n l l k x m k d d d k k $.<.,.<.1.1.1.2.2.1.:.+.z 3 = r.d.f.h.j.k.x.6.8 8 = ",
"= 3 y [ O.O.X.X.X.o.[ % 3 l } }  . .X.X.O.+.+.#.H l z p s l l x k p p d x k [ &.$.-.:.,.,.,.1.,.,.*.l 1 = { X.X.X.O.O.O.` t 8 % ",
"@ 5 u 2 1 % $ @ + X o @ 3 5 - ; 1 1 3 e r 3 : 6 r p r d l l d l d p p d y y e 6 6 : 6 6 : : 6 : = 3 8 3 @ X X o o % - - 4 i 3 @ ",
"$ 5 q i u u r 0 3 3 ; o 3 t 5 i s s s z s p i d d y p p i s p k y y p d d d k k d d d d d d k y y y t 3 @ ; 3 8 8 q u u u 0 e $ ",
"= i u u u 0 3 1 : - = % 3 t 8 i p u p g s p t y p d d p d y p d y 6 d k d d d d d y y i e e d y y t t 3 % = - 3 3 3 0 r u r i = ",
"5 e 6 q r 3 ; - 1 ; - = 3 3 3 u 0 0 r f i r r r r y e t d d p p e : 3 e r e 6 y d r 6 3 : : : 6 r 6 8 3 = - - 2 & - 3 e q r t 5 ",
"1 > 2 2 1 * + # # O X + 1 u 8 u 8 8 r y p p h z l x l y y e 8 8 0 8 8 f t p h r e - @ % * * ; 8 3 u u 2 X X O # # # & 1 1 4 $ 1 ",
"%.>.4.5.9.9.6.7.>.%.#.) { 0.0.<.:.6.8.9.w.w.t.y.t.y.t.;.$.<.3.0.e.u.i.p.t.i.i.@.O.;.:.6.q.q.e.t.0.u.0.{ ~ $.%.>.7.6.9.9.5.5.>.%.",
"&.=.=.-.=.=.$.+. . .} ) Q | [ F x x x V G H Y W W Q Q F V J J J Y ! ~ [ [ [ ) J W ~ ` ` ' } X.X.o.X.| Q [ }  . .O.$.*.=.-.=.=.#.",
"; ; : : = = % o . .     X - : =       o o % o o : : 6 o     o o o o @ = - : : o       . o o @ = - : : .       o o @ = - : : ; ; "
};
