/* XPM */
static char *_579300908219[] = {
/* columns rows colors chars-per-pixel */
"64 64 36 1 ",
"  c #1E1614",
". c #211916",
"X c #251D1A",
"o c #291F1C",
"O c #27201E",
"+ c #2B211E",
"@ c #2E2422",
"# c #312623",
"$ c #342926",
"% c #382B27",
"& c #362C29",
"* c #3A2E2A",
"= c #3D312D",
"- c #3F3330",
"; c #41332F",
": c #433632",
"> c #463935",
", c #493A36",
"< c #473C39",
"1 c #4C3D39",
"2 c #503F3A",
"3 c #4F403C",
"4 c #51423E",
"5 c #554641",
"6 c #584743",
"7 c #574844",
"8 c #5A4A45",
"9 c #5D4D49",
"0 c #5F504C",
"q c #614F4A",
"w c #62524D",
"e c #69554F",
"r c #665651",
"t c #695650",
"y c #675853",
"u c #6A5954",
/* pixels */
"5,,>:>,>,,>,:,,,,>,,1141,144444445854455644445699908466709678899",
"4>>>;>>;;>;;;;;;:;***;*;:**%*%*;***;*;=****;;**;=;;:;;;;;>;;:>41",
"4;,1,214421>>222141124544211,,14212,1111121212244441442111111101",
"4*>,;;;>;;*;;**;*:;;;::;=;;*;>>,,>>>,,:>>:;;>>>>,11,>,1,13442>91",
"5>;1>*%%%$#%%%%%%=%**=*-*%%%*=***%**;**;=%**=%%===;*=*;**==3>;91",
"2>>12:>;;*;*;;>;>:::><<->>::*:::;;;=;**%=%**%%=&%=*=;**%%%>0>;6,",
"4>;12,>>>>,>>>>>>11>><<51,,>>,,,>,>>,>>>><>>1>>>>>>,:;>;;149,:41",
"4;;,1>,464424464455444554554565786788666535535332441,2>,:44w>>4>",
"5:;14;>4>;:=%->-@#$@#&--*#*:=>*;&-:=-<-&#---<==*--$&&&$&>45r:=5,",
"5;;14>11%%=-&$=-$X@@@$*-&O#--;%;+%*$*>*@X*--5=&&-*O#@@@$245r>:61",
"6;;34>,3:==->=&=:-@@#*-5-+&111;2#:-=:3>&@>>19:=-3-#-*&@*146w:;6,",
"6>;11;14--=-:1-%->-@#*<5;@&535,2&<>->5<%@1350,,:3>&--=&&,28w;;51",
"6>;3,:,4*->:>13=%:1:@*>3;#*455,4=<>:>71%@415w,,:3,*>>=&*,389:=6,",
"8>=,,;15=&>1>333:=<1-&-3=#=44418%<>:>81=#518w3,:3:=>>-&*,38w:=91",
"8>=,1>13-=%131333::,5>&>*@=45626=<1:>83=$4,9y3>:3,=,>=%%1490;;91",
"7;=,3>11$--=353335::<5,;%+=4642q%1,:<93=$419y4>:,:=,:-&%139q;;61",
"8>=,3,33@@---374334:;,4,@o&1752q*>1>>92*&1,9y7>>3:=,-=&&3380=;63",
"6,;,43,4@ &33-381334>;,3:X&>514t*>1:>91*%5,8u7,>3:=>--&*3<89=>4,",
"9,;33>,4@@ $3<:371337,;,4-@:5<1t=<3:>61*%5>7u7>>1>=,-=&*3378;;41",
"9>;,,>34#@@X&3,>443434>:14<=--1q&:1>>84=%5>7r5>>4>=3-&**3389;>4,",
"8>;11>16#@#@#=31>4443,4,:,4,=*,6&>1::83*%5>6y5>>4>;3=&*&4,9q>>4,",
"6>=,1>34$$$#&$:51;443333>>,41$,4#-1>:75-$2,8y5,>3;;3=%=&4,69;>4,",
"4>*>3>14&&&&=---4>>441334>;>4>*,@=1>:52:%1>7y51:4;;4>*=$4>6q;:44",
"4,=>1>36*&&&--<-=2,,44,,11;;:4,:O*<>>73:*1,8r41<3>;3:&*&4>64;,44",
"4,;>1>,6%$$&->5<&=3,>441131>=>4,X$->-51-%1,8y4<11:*3=&=$1>86;>42",
"4,;>2;14=&%=<353=$=41>48,114>>,4=@*--53=%2>8y4113==5=$=$3>96;>41",
"41=,4;44&&==3595<&$%41>741144>,,3:$**33=$1>7y4114=-7=&=$2>64;,64",
"8,%>1;14&$==37073>&@&41:441144>;,4>&$1<=%,>7t5,,4=:7*&=&4>44;183",
"63=>1;14$&&=17983>=#@&53>441144>::4:@><=%1>7w4<<4;>4=&=&4,44*2q2",
"41;>4>44&$==>5853,:&@#-52,44,,46:::5>--$#,:4w4<,3=>7=&=&4,64;,83",
"71=>4:34$$=-15853<>&$$=-41154,241,::5<&@+::504,13=:7=&*%3;44%1q2",
"43=>4>14$$=-378731>&&=--*42,64,244>:>5>Oo-=484,11%>9;%=;4,44;,83",
"8,%>3>14$$=-3787333===>3+$44184,,15>:,5=X*=173,11%>8-&*-7<51>,61",
"8,=:3,15$$%-179831,;==33$.&43,44,115>>,7-$&<71<15*,9-**-5>53>,51",
"71=:1,15&@**,7983,,:==34%.+=43>321145>>18<@-1,<>1=10*&*-5:11>151",
"43%>1>,8&$==<78831,:=;46=.$$=43;12,,25:>17>-<:>:1=39*-*=5:1<;48,",
"43%>1,>6$@%=189733,:;>48;o*=*=33:22>,25:-,61--:-1*19*-&=6:,1:4q2",
"84%:1>>8&@&%<88733>:;>48;+;>===42>22>,55::,6<&=*>*30*-&-6:,,:48,",
"85=:1>>5$#&=188633:=;>48;+;:,:;>52:11,,55::,5:&&*%,0*--=6>,,:48,",
"74%:1>>5#@&=188833::;;48;+>>,,,;$52:11,155::<5:#*$>7&-*-6,,2:462",
"43%>,>>6##%=,76953:::;48;+211241.%21:,,,145>>,5>@@-5&<&*q>,,:444",
"53=>1,>9$@==178933>:-=37;+,,34q4X@*51:,21>25>:,5-@-5#-&-q,:,:442",
"74*;3,>8#@&=>7793,::;;46;+1,4qq4@$$&53>,2,,55::,7-&-@-&-61;,:4q2",
"74=>,3,8#+&=398953>->>37;+>,4qeq@==$$15-11,154:>-5-&@*&*8,:,:462",
"74=>,,,9#@&=,w983,>;;:34;+;:4qwe$=>*@&35:>21144><,5-X$$&6,,,:4q,",
"74%>,3,8#@#%,9983,,;;>,7;+:>44et#-,-#**32::22>15>->3*@@&62:,,462",
"34=:>,,9&@#&18983,,>;>,7;+,,4qeu&:,:=-**25::22>55:=>1%o$q::,:4q1",
"33=;>,,8$##=,0w83>>;>>,4;@114qee$<1>=<-##25:,22,35-=;,##q,:,,462",
"34;>>,38$$#=,0003>>:>>15;#1,48tq&<<,=3>#.#33>,43>33:=-:-8,;,24q1",
"34>>,>,7$$$&30993<1>:>45;#1,4quw$>31-33&O+&33:33,>33=*=<0,;1246>",
"37>>3,>7#$$=3w993>>>::48;+1,49yw&>13>53=+@$&34-,,,:1<&&-0>>14461",
",4;;,,,7#$$*39981>::>:15=+>>46ew$>,<-51=+$==&33->,>->>&-0,>12464",
",3;;,3,5@@#*>977<>:=>=34=+>;16w8#>,,-3<=+&=:&&33=>>:=--*q2,42464",
",4::>,>4@@#*>433-=%&-=:<$o=-,404@;:=*<>&+&=-&@@->%===&=>44,42484",
",4:;>,>3OOO#=3:>=$$@*$==#X#%=153O&=&#**# #==#@OO:=&===#:q4,44494",
",4>;>,>4+OO@&===&$$#$&&=$+%%=:<:@&*&&*-&@&**&@@X@:=&%=&-q4,44464",
",7>;;>>4--=::;,,::>>,,111111,11,:>,,>,>,1334333,>,>>>>>;431424q3",
">4;:>>>>:,,,,>,31,3333111411411131,,,,,,,>>>>,,,,>;>;;;;;,4414q4",
";3>>,444333334431131,13311134114333<1111,,1,,3,,,,>,111,>14q3484",
";3;;3444333334333544335344134542337333541133333,,334312,12342384",
",1;>4434444574776685555455776544558555774443133,>343333444341244",
"33>>>>>1,>>::,>>;>>;;;>:>;::>>:>>>,>:::>;>1>>>;;;>,>,>,,,,,,>244",
"341>>>,,,3,33,,,,131114114141111,,,4444111111,1,>1>>422,:,>;>244",
"4432>343344444444444457655888888657887888646644644464q6844444488"
};
