/* XPM */
static char *_579300902159[] = {
/* columns rows colors chars-per-pixel */
"64 64 46 1 ",
"  c #19334F",
". c #1B3552",
"X c #1D3956",
"o c #1F3C58",
"O c #213E5B",
"+ c #23415E",
"@ c #254461",
"# c #274866",
"$ c #284866",
"% c #2C4D6B",
"& c #2F516F",
"* c #30516F",
"= c #335574",
"- c #355877",
"; c #365A79",
": c #395D7C",
"> c #3C607F",
", c #3E6381",
"< c #416684",
"1 c #436987",
"2 c #466C8A",
"3 c #486E8C",
"4 c #4A718E",
"5 c #4E7492",
"6 c #4F7894",
"7 c #507794",
"8 c #527996",
"9 c #557D9A",
"0 c #587F9C",
"q c #57809C",
"w c #59829E",
"e c #5C85A1",
"r c #5E88A4",
"t c #618AA6",
"y c #648EA9",
"u c #6791AB",
"i c #6A93AD",
"p c #6D96B0",
"a c #6E99B2",
"s c #729CB5",
"d c #759EB8",
"f c #789FB9",
"g c #77A1BA",
"h c #79A1BB",
"j c #7DA5C0",
"k c None",
/* pixels */
"kkkkkkkkkkkkkkkkkkkkkkkkkkkkkkkkkkkkkkkkkkkkkkkkkkkkkkkkkkkkkkkk",
"k=kkkkkkkkkkkkkkkkkkkkkkkkkkkkkkkkkkkkkkkkkkkkkkkkkkkkkkkkkk&%:k",
"k;$==kkkkkkkkkkkkkkkkkkkkkkkkkkkkkkkkkkkkkkkkkkkkkkkkkkkkk=$O@3k",
"kk=&-;;-kkkkkkkkkkkkkkkkkkkkkkkkkkkkkkkkkkkkkkkkkkkkkkk#%$@oX@kk",
"kk%%:,,,;:=kkkkkkkkkkkkkkkkkkkkkkkkkkkkkkkkkkkkkkkk%&%%$$$$Oo@kk",
"kkk$;,,33,:,;:;,kkkkkkkkkkkkkkkkkkkkkkkkkkkkkk;=;==%%=%%$&%+Okkk",
"kkk+%,,45841,:,,<<,-,2kkkkkkkkkkkkkkkkkk,=-:;::;;-===;=%=;%Xkkkk",
"kkkk$>3,2906311<2<<,><<,<<,<211<<452<1<<,:;;;;::,,,,:;=&==O kkkk",
"kkkk@=52,289888643,<<>,<1>>,<>>>,,<1,3,,,,;;::,,222,:;=;;% kkkkk",
"kkkkk%<84,<668080773431,1<,<<,<12<1543311,,,,15564,;;=,1=+ kkkkk",
"kkkkk@%564,32278qwqqwq844411111122556444313235774,;;,k8,%.kkkkkk",
"kkkkkkO:6664<,<2478wwtttewq88q7759q9669686555552,,>19q8:@.kkkkkk",
"kkkkkkX#,8984<,<<158qwwttttettewerrre9qq996431<,,,4qw82;Okkkkkkk",
"kkkkkkko=<59872<<<33757qweeeetttrrrrrreq9642<:,26qqq05,&Xkkkkkkk",
"kkkkkkkX@=170e74333343445788qqwweereeq9651<,,<58rpue92:@kkkkkkkk",
"kkkkkkkk@%,37w07754743433347478q99965552,,:<36etirre91=+kkkkkkkk",
"kkkkkkkkO%;3790788890855444444778965743<,><48tiirree9,%kkkkkkkkk",
"kkkkkkkkk%=17w97889wtrw988774747598873222489tipteryr6;$kkkkkkkkk",
"kkkkkkkkk%=;39t97580tttrew8qqq888008435589etuut9euuq4*kkkkkkkkkk",
"kkkkkkkkkk:;>5tuw438wrrrtteeteetrrtw80000tuit090upr9,*kkkkkkkkkk",
"kkkkkkkkkk::;19yi9438wwryyypisssppiyrrrtyiiw889yiue5;kkkkkkkkkkk",
"kkkkkkkkkkk,::29yi07458rttissfffssuuyyttyt0559ypieq,;kkkkkkkkkkk",
"kkkkkkkkkkk>,;:30yir8570weypsfffsiyttyttr5349riprq62kkkkkkkkkkkk",
"kkkkkkkkkkkk2>:,40tpt0588qwetisiyteqwww84248tyiyq655kkkkkkkkkkkk",
"kkkkkkkkkkkk32:;:30tpi0078700eew99998554349ttyy0955kkkkkkkkkkkkk",
"kkkkkkkkkkkkk8,;;>50ipit007080807785574489etuue0856kkkkkkkkkkkkk",
"kkkkkkkkkkkkkq2:::<8tipfit0t00008775787800tttt0989kkkkkkkkkkkkkk",
"kkkkkkkkkkkkkk0<>><40tiffsiyeyt0w0999wwwt0ttt0900ekkkkkkkkkkkkkk",
"kkkkkkkkkkkkkky9<<<350tpfffpyiytttwtwwwwt0tt0999wkkkkkkkkkkkkkkk",
"kkkkkkkkkkkkkkkt22<2240tiiiitititytytw0000000008ekkkkkkkkkkkkkkk",
"kkkkkkkkkkkkkkke232<1340tttitttyttttw0878990ww99kkkkkkkkkkkkkkkk",
"kkkkkkkkkkkkkkkk7232333700ww0w0ewwww98847880w08ekkkkkkkkkkkkkkkk",
"kkkkkkkkkkkkkkkk22755546qqeeeqqqwwww09745580000kkkkkkkkkkkkkkkkk",
"kkkkkkkkkkkkkkkkk49955669qqrreeewweww974500000ikkkkkkkkkkkkkkkkk",
"kkkkkkkkkkkkkkkkk,=0556899qrrreewwww097580000tkkkkkkkkkkkkkkkkkk",
"kkkkkkkkkkkkkkkkk%o47569qqqqeeeqwweew09900t0ttkkkkkkkkkkkkkkkkkk",
"kkkkkkkkkkkkkkkkk#kk6660eeqqqqqqwwwere000te0ukkkkkkkkkkkkkkkkkkk",
"kkkkkkkkkkkkkkkkkokk,699eeqeqqqeerttrrrrt00tpkkkkkkkkkkkkkkkkkkk",
"kkkkkkkkkkkkkkkkkkk,,,69qqeeqqqewrttttttteeukkkkkkkkkkkkkkkkkkkk",
"kkkkkkkkkkkkkkkkkkk,9,69qerrrrrqwrttyttitetukkkkkkkkkkkkkkkkkkkk",
"kkkkkkkkkkkkkkkkkkkke558qeryyyyrwtttytuitypkkkkkkkkkkkkkkkkkkkkk",
"kkkkkkkkkkkkkkkkkkkk0e58qetuupuyttuttypyyipkkkkkkkkkkkkkkkkkkkkk",
"kkkkkkkkkkkkkkkkkkkkke79qeryuuuytutuyiptetkkkkkkkkkkkkkkkkkkkkkk",
"kkkkkkkkkkkkkkkkkkkkkee7qqqttyryuttuipu058kkkkkkkkkkkkkkkkkkkkkk",
"kkkkkkkkkkkkkkkkkkkkkkt8eqetyttyuuuuiit7>kkkkkkkkkkkkkkkkkkkkkkk",
"kkkkkkkkkkkkkkkkkkkkkkee,qeyppppasaaiat1kkkkkkkkkkkkkkkkkkkkkkkk",
"kkkkkkkkkkkkkkkkkkkkkkktqqqypupagssasse:kkkkkkkkkkkkkkkkkkkkkkkk",
"kkkkkkkkkkkkkkkkkkkkkkkerqqyuppjgssgsp8=kkkkkkkkkkkkkkkkkkkkkkkk",
"kkkkkkkkkkkkkkkkkkkkkkkkieeripsjfssspytkkkkkkkkkkkkkkkkkkkkkkkkk",
"kkkkkkkkkkkkkkkkkkkkkkkkyrerypassspfpiykkkkkkkkkkkkkkkkkkkkkkkkk",
"kkkkkkkkkkkkkkkkkkkkkkkkkueeypssssspyskkkkkkkkkkkkkkkkkkkkkkkkkk",
"kkkkkkkkkkkkkkkkkkkkkkkkkurqyppafsfiifkkkkkkkkkkkkkkkkkkkkkkkkkk",
"kkkkkkkkkkkkkkkkkkkkkkkkkkarripadfsufkkkkkkkkkkkkkkkkkkkkkkkkkkk",
"kkkkkkkkkkkkkkkkkkkkkkkkkkjdriaassiijkkkkkkkkkkkkkkkkkkkkkkkkkkk",
"kkkkkkkkkkkkkkkkkkkkkkkkkkkjrraassufkkkkkkkkkkkkkkkkkkkkkkkkkkkk",
"kkkkkkkkkkkkkkkkkkkkkkkkkkkyrrupsiuhkkkkkkkkkkkkkkkkkkkkkkkkkkkk",
"kkkkkkkkkkkkkkkkkkkkkkkkkkkkrrriauskkkkkkkkkkkkkkkkkkkkkkkkkkkkk",
"kkkkkkkkkkkkkkkkkkkkkkkkkkkkereryidkkkkkkkkkkkkkkkkkkkkkkkkkkkkk",
"kkkkkkkkkkkkkkkkkkkkkkkkkkkkkeqeepkkkkkkkkkkkkkkkkkkkkkkkkkkkkkk",
"kkkkkkkkkkkkkkkkkkkkkkkkkkkkk,99epkkkkkkkkkkkkkkkkkkkkkkkkkkkkkk",
"kkkkkkkkkkkkkkkkkkkkkkkkkkkkkk,6ykkkkkkkkkkkkkkkkkkkkkkkkkkkkkkk",
"kkkkkkkkkkkkkkkkkkkkkkkkkkkkkk=5rkkkkkkkkkkkkkkkkkkkkkkkkkkkkkkk",
"kkkkkkkkkkkkkkkkkkkkkkkkkkkkkkk6kkkkkkkkkkkkkkkkkkkkkkkkkkkkkkkk",
"kkkkkkkkkkkkkkkkkkkkkkkkkkkkkkkkkkkkkkkkkkkkkkkkkkkkkkkkkkkkkkkk"
};
